<?xml version="1.0" encoding="utf-8" standalone="no"?>
<!DOCTYPE svg PUBLIC "-//W3C//DTD SVG 1.1//EN"
  "http://www.w3.org/Graphics/SVG/1.1/DTD/svg11.dtd">
<!-- Created with matplotlib (http://matplotlib.org/) -->
<svg height="576pt" version="1.1" viewBox="0 0 936 576" width="936pt" xmlns="http://www.w3.org/2000/svg" xmlns:xlink="http://www.w3.org/1999/xlink">
 <defs>
  <style type="text/css">
*{stroke-linecap:butt;stroke-linejoin:round;}
  </style>
 </defs>
 <g id="figure_1">
  <g id="patch_1">
   <path d="M 0 576 
L 936 576 
L 936 0 
L 0 0 
z
" style="fill:#ffffff;"/>
  </g>
  <g id="axes_1">
   <g id="patch_2">
    <path d="M 117.070313 491.675781 
L 638.560547 491.675781 
L 638.560547 35.947266 
L 117.070313 35.947266 
z
" style="fill:#ffffff;"/>
   </g>
   <g id="matplotlib.axis_1">
    <g id="xtick_1">
     <g id="line2d_1">
      <defs>
       <path d="M 0 0 
L 0 3.5 
" id="m9312f56005" style="stroke:#000000;stroke-width:0.8;"/>
      </defs>
      <g>
       <use style="stroke:#000000;stroke-width:0.8;" x="140.774414" xlink:href="#m9312f56005" y="491.675781"/>
      </g>
     </g>
     <g id="text_1">
      <!-- 0 -->
      <defs>
       <path d="M 4.15625 35.296875 
Q 4.15625 48 6.765625 55.734375 
Q 9.375 63.484375 14.515625 67.671875 
Q 19.671875 71.875 27.484375 71.875 
Q 33.25 71.875 37.59375 69.546875 
Q 41.9375 67.234375 44.765625 62.859375 
Q 47.609375 58.5 49.21875 52.21875 
Q 50.828125 45.953125 50.828125 35.296875 
Q 50.828125 22.703125 48.234375 14.96875 
Q 45.65625 7.234375 40.5 3 
Q 35.359375 -1.21875 27.484375 -1.21875 
Q 17.140625 -1.21875 11.234375 6.203125 
Q 4.15625 15.140625 4.15625 35.296875 
z
M 13.1875 35.296875 
Q 13.1875 17.671875 17.3125 11.828125 
Q 21.4375 6 27.484375 6 
Q 33.546875 6 37.671875 11.859375 
Q 41.796875 17.71875 41.796875 35.296875 
Q 41.796875 52.984375 37.671875 58.78125 
Q 33.546875 64.59375 27.390625 64.59375 
Q 21.34375 64.59375 17.71875 59.46875 
Q 13.1875 52.9375 13.1875 35.296875 
z
" id="ArialMT-30"/>
      </defs>
      <g transform="translate(133.823242 516.570312)scale(0.25 -0.25)">
       <use xlink:href="#ArialMT-30"/>
      </g>
     </g>
    </g>
    <g id="xtick_2">
     <g id="line2d_2">
      <g>
       <use style="stroke:#000000;stroke-width:0.8;" x="266.927163" xlink:href="#m9312f56005" y="491.675781"/>
      </g>
     </g>
     <g id="text_2">
      <!-- 500 -->
      <defs>
       <path d="M 4.15625 18.75 
L 13.375 19.53125 
Q 14.40625 12.796875 18.140625 9.390625 
Q 21.875 6 27.15625 6 
Q 33.5 6 37.890625 10.78125 
Q 42.28125 15.578125 42.28125 23.484375 
Q 42.28125 31 38.0625 35.34375 
Q 33.84375 39.703125 27 39.703125 
Q 22.75 39.703125 19.328125 37.765625 
Q 15.921875 35.84375 13.96875 32.765625 
L 5.71875 33.84375 
L 12.640625 70.609375 
L 48.25 70.609375 
L 48.25 62.203125 
L 19.671875 62.203125 
L 15.828125 42.96875 
Q 22.265625 47.46875 29.34375 47.46875 
Q 38.71875 47.46875 45.15625 40.96875 
Q 51.609375 34.46875 51.609375 24.265625 
Q 51.609375 14.546875 45.953125 7.46875 
Q 39.0625 -1.21875 27.15625 -1.21875 
Q 17.390625 -1.21875 11.203125 4.25 
Q 5.03125 9.71875 4.15625 18.75 
z
" id="ArialMT-35"/>
      </defs>
      <g transform="translate(246.073648 516.570312)scale(0.25 -0.25)">
       <use xlink:href="#ArialMT-35"/>
       <use x="55.615234" xlink:href="#ArialMT-30"/>
       <use x="111.230469" xlink:href="#ArialMT-30"/>
      </g>
     </g>
    </g>
    <g id="xtick_3">
     <g id="line2d_3">
      <g>
       <use style="stroke:#000000;stroke-width:0.8;" x="393.079912" xlink:href="#m9312f56005" y="491.675781"/>
      </g>
     </g>
     <g id="text_3">
      <!-- 1000 -->
      <defs>
       <path d="M 37.25 0 
L 28.46875 0 
L 28.46875 56 
Q 25.296875 52.984375 20.140625 49.953125 
Q 14.984375 46.921875 10.890625 45.40625 
L 10.890625 53.90625 
Q 18.265625 57.375 23.78125 62.296875 
Q 29.296875 67.234375 31.59375 71.875 
L 37.25 71.875 
z
" id="ArialMT-31"/>
      </defs>
      <g transform="translate(365.275225 516.570312)scale(0.25 -0.25)">
       <use xlink:href="#ArialMT-31"/>
       <use x="55.615234" xlink:href="#ArialMT-30"/>
       <use x="111.230469" xlink:href="#ArialMT-30"/>
       <use x="166.845703" xlink:href="#ArialMT-30"/>
      </g>
     </g>
    </g>
    <g id="xtick_4">
     <g id="line2d_4">
      <g>
       <use style="stroke:#000000;stroke-width:0.8;" x="519.232661" xlink:href="#m9312f56005" y="491.675781"/>
      </g>
     </g>
     <g id="text_4">
      <!-- 1500 -->
      <g transform="translate(491.427974 516.570312)scale(0.25 -0.25)">
       <use xlink:href="#ArialMT-31"/>
       <use x="55.615234" xlink:href="#ArialMT-35"/>
       <use x="111.230469" xlink:href="#ArialMT-30"/>
       <use x="166.845703" xlink:href="#ArialMT-30"/>
      </g>
     </g>
    </g>
    <g id="text_5">
     <!-- Ribosome position -->
     <defs>
      <path d="M 7.859375 0 
L 7.859375 71.578125 
L 39.59375 71.578125 
Q 49.171875 71.578125 54.140625 69.640625 
Q 59.125 67.71875 62.109375 62.828125 
Q 65.09375 57.953125 65.09375 52.046875 
Q 65.09375 44.4375 60.15625 39.203125 
Q 55.21875 33.984375 44.921875 32.5625 
Q 48.6875 30.765625 50.640625 29 
Q 54.78125 25.203125 58.5 19.484375 
L 70.953125 0 
L 59.03125 0 
L 49.5625 14.890625 
Q 45.40625 21.34375 42.71875 24.75 
Q 40.046875 28.171875 37.921875 29.53125 
Q 35.796875 30.90625 33.59375 31.453125 
Q 31.984375 31.78125 28.328125 31.78125 
L 17.328125 31.78125 
L 17.328125 0 
z
M 17.328125 39.984375 
L 37.703125 39.984375 
Q 44.1875 39.984375 47.84375 41.328125 
Q 51.515625 42.671875 53.421875 45.625 
Q 55.328125 48.578125 55.328125 52.046875 
Q 55.328125 57.125 51.640625 60.390625 
Q 47.953125 63.671875 39.984375 63.671875 
L 17.328125 63.671875 
z
" id="ArialMT-52"/>
      <path d="M 6.640625 61.46875 
L 6.640625 71.578125 
L 15.4375 71.578125 
L 15.4375 61.46875 
z
M 6.640625 0 
L 6.640625 51.859375 
L 15.4375 51.859375 
L 15.4375 0 
z
" id="ArialMT-69"/>
      <path d="M 14.703125 0 
L 6.546875 0 
L 6.546875 71.578125 
L 15.328125 71.578125 
L 15.328125 46.046875 
Q 20.90625 53.03125 29.546875 53.03125 
Q 34.328125 53.03125 38.59375 51.09375 
Q 42.875 49.171875 45.625 45.671875 
Q 48.390625 42.1875 49.953125 37.25 
Q 51.515625 32.328125 51.515625 26.703125 
Q 51.515625 13.375 44.921875 6.09375 
Q 38.328125 -1.171875 29.109375 -1.171875 
Q 19.921875 -1.171875 14.703125 6.5 
z
M 14.59375 26.3125 
Q 14.59375 17 17.140625 12.84375 
Q 21.296875 6.0625 28.375 6.0625 
Q 34.125 6.0625 38.328125 11.0625 
Q 42.53125 16.0625 42.53125 25.984375 
Q 42.53125 36.140625 38.5 40.96875 
Q 34.46875 45.796875 28.765625 45.796875 
Q 23 45.796875 18.796875 40.796875 
Q 14.59375 35.796875 14.59375 26.3125 
z
" id="ArialMT-62"/>
      <path d="M 3.328125 25.921875 
Q 3.328125 40.328125 11.328125 47.265625 
Q 18.015625 53.03125 27.640625 53.03125 
Q 38.328125 53.03125 45.109375 46.015625 
Q 51.90625 39.015625 51.90625 26.65625 
Q 51.90625 16.65625 48.90625 10.90625 
Q 45.90625 5.171875 40.15625 2 
Q 34.421875 -1.171875 27.640625 -1.171875 
Q 16.75 -1.171875 10.03125 5.8125 
Q 3.328125 12.796875 3.328125 25.921875 
z
M 12.359375 25.921875 
Q 12.359375 15.96875 16.703125 11.015625 
Q 21.046875 6.0625 27.640625 6.0625 
Q 34.1875 6.0625 38.53125 11.03125 
Q 42.875 16.015625 42.875 26.21875 
Q 42.875 35.84375 38.5 40.796875 
Q 34.125 45.75 27.640625 45.75 
Q 21.046875 45.75 16.703125 40.8125 
Q 12.359375 35.890625 12.359375 25.921875 
z
" id="ArialMT-6f"/>
      <path d="M 3.078125 15.484375 
L 11.765625 16.84375 
Q 12.5 11.625 15.84375 8.84375 
Q 19.1875 6.0625 25.203125 6.0625 
Q 31.25 6.0625 34.171875 8.515625 
Q 37.109375 10.984375 37.109375 14.3125 
Q 37.109375 17.28125 34.515625 19 
Q 32.71875 20.171875 25.53125 21.96875 
Q 15.875 24.421875 12.140625 26.203125 
Q 8.40625 27.984375 6.46875 31.125 
Q 4.546875 34.28125 4.546875 38.09375 
Q 4.546875 41.546875 6.125 44.5 
Q 7.71875 47.46875 10.453125 49.421875 
Q 12.5 50.921875 16.03125 51.96875 
Q 19.578125 53.03125 23.640625 53.03125 
Q 29.734375 53.03125 34.34375 51.265625 
Q 38.96875 49.515625 41.15625 46.5 
Q 43.359375 43.5 44.1875 38.484375 
L 35.59375 37.3125 
Q 35.015625 41.3125 32.203125 43.546875 
Q 29.390625 45.796875 24.265625 45.796875 
Q 18.21875 45.796875 15.625 43.796875 
Q 13.03125 41.796875 13.03125 39.109375 
Q 13.03125 37.40625 14.109375 36.03125 
Q 15.1875 34.625 17.484375 33.6875 
Q 18.796875 33.203125 25.25 31.453125 
Q 34.578125 28.953125 38.25 27.359375 
Q 41.9375 25.78125 44.03125 22.75 
Q 46.140625 19.734375 46.140625 15.234375 
Q 46.140625 10.84375 43.578125 6.953125 
Q 41.015625 3.078125 36.171875 0.953125 
Q 31.34375 -1.171875 25.25 -1.171875 
Q 15.140625 -1.171875 9.84375 3.03125 
Q 4.546875 7.234375 3.078125 15.484375 
z
" id="ArialMT-73"/>
      <path d="M 6.59375 0 
L 6.59375 51.859375 
L 14.453125 51.859375 
L 14.453125 44.578125 
Q 16.890625 48.390625 20.9375 50.703125 
Q 25 53.03125 30.171875 53.03125 
Q 35.9375 53.03125 39.625 50.640625 
Q 43.3125 48.25 44.828125 43.953125 
Q 50.984375 53.03125 60.84375 53.03125 
Q 68.5625 53.03125 72.703125 48.75 
Q 76.859375 44.484375 76.859375 35.59375 
L 76.859375 0 
L 68.109375 0 
L 68.109375 32.671875 
Q 68.109375 37.9375 67.25 40.25 
Q 66.40625 42.578125 64.15625 43.984375 
Q 61.921875 45.40625 58.890625 45.40625 
Q 53.421875 45.40625 49.796875 41.765625 
Q 46.1875 38.140625 46.1875 30.125 
L 46.1875 0 
L 37.40625 0 
L 37.40625 33.6875 
Q 37.40625 39.546875 35.25 42.46875 
Q 33.109375 45.40625 28.21875 45.40625 
Q 24.515625 45.40625 21.359375 43.453125 
Q 18.21875 41.5 16.796875 37.734375 
Q 15.375 33.984375 15.375 26.90625 
L 15.375 0 
z
" id="ArialMT-6d"/>
      <path d="M 42.09375 16.703125 
L 51.171875 15.578125 
Q 49.03125 7.625 43.21875 3.21875 
Q 37.40625 -1.171875 28.375 -1.171875 
Q 17 -1.171875 10.328125 5.828125 
Q 3.65625 12.84375 3.65625 25.484375 
Q 3.65625 38.578125 10.390625 45.796875 
Q 17.140625 53.03125 27.875 53.03125 
Q 38.28125 53.03125 44.875 45.953125 
Q 51.46875 38.875 51.46875 26.03125 
Q 51.46875 25.25 51.421875 23.6875 
L 12.75 23.6875 
Q 13.234375 15.140625 17.578125 10.59375 
Q 21.921875 6.0625 28.421875 6.0625 
Q 33.25 6.0625 36.671875 8.59375 
Q 40.09375 11.140625 42.09375 16.703125 
z
M 13.234375 30.90625 
L 42.1875 30.90625 
Q 41.609375 37.453125 38.875 40.71875 
Q 34.671875 45.796875 27.984375 45.796875 
Q 21.921875 45.796875 17.796875 41.75 
Q 13.671875 37.703125 13.234375 30.90625 
z
" id="ArialMT-65"/>
      <path id="ArialMT-20"/>
      <path d="M 6.59375 -19.875 
L 6.59375 51.859375 
L 14.59375 51.859375 
L 14.59375 45.125 
Q 17.4375 49.078125 21 51.046875 
Q 24.5625 53.03125 29.640625 53.03125 
Q 36.28125 53.03125 41.359375 49.609375 
Q 46.4375 46.1875 49.015625 39.953125 
Q 51.609375 33.734375 51.609375 26.3125 
Q 51.609375 18.359375 48.75 11.984375 
Q 45.90625 5.609375 40.453125 2.21875 
Q 35.015625 -1.171875 29 -1.171875 
Q 24.609375 -1.171875 21.109375 0.6875 
Q 17.625 2.546875 15.375 5.375 
L 15.375 -19.875 
z
M 14.546875 25.640625 
Q 14.546875 15.625 18.59375 10.84375 
Q 22.65625 6.0625 28.421875 6.0625 
Q 34.28125 6.0625 38.453125 11.015625 
Q 42.625 15.96875 42.625 26.375 
Q 42.625 36.28125 38.546875 41.203125 
Q 34.46875 46.140625 28.8125 46.140625 
Q 23.1875 46.140625 18.859375 40.890625 
Q 14.546875 35.640625 14.546875 25.640625 
z
" id="ArialMT-70"/>
      <path d="M 25.78125 7.859375 
L 27.046875 0.09375 
Q 23.34375 -0.6875 20.40625 -0.6875 
Q 15.625 -0.6875 12.984375 0.828125 
Q 10.359375 2.34375 9.28125 4.8125 
Q 8.203125 7.28125 8.203125 15.1875 
L 8.203125 45.015625 
L 1.765625 45.015625 
L 1.765625 51.859375 
L 8.203125 51.859375 
L 8.203125 64.703125 
L 16.9375 69.96875 
L 16.9375 51.859375 
L 25.78125 51.859375 
L 25.78125 45.015625 
L 16.9375 45.015625 
L 16.9375 14.703125 
Q 16.9375 10.9375 17.40625 9.859375 
Q 17.875 8.796875 18.921875 8.15625 
Q 19.96875 7.515625 21.921875 7.515625 
Q 23.390625 7.515625 25.78125 7.859375 
z
" id="ArialMT-74"/>
      <path d="M 6.59375 0 
L 6.59375 51.859375 
L 14.5 51.859375 
L 14.5 44.484375 
Q 20.21875 53.03125 31 53.03125 
Q 35.6875 53.03125 39.625 51.34375 
Q 43.5625 49.65625 45.515625 46.921875 
Q 47.46875 44.1875 48.25 40.4375 
Q 48.734375 37.984375 48.734375 31.890625 
L 48.734375 0 
L 39.9375 0 
L 39.9375 31.546875 
Q 39.9375 36.921875 38.90625 39.578125 
Q 37.890625 42.234375 35.28125 43.8125 
Q 32.671875 45.40625 29.15625 45.40625 
Q 23.53125 45.40625 19.453125 41.84375 
Q 15.375 38.28125 15.375 28.328125 
L 15.375 0 
z
" id="ArialMT-6e"/>
     </defs>
     <g transform="translate(274.989258 543.433594)scale(0.25 -0.25)">
      <use xlink:href="#ArialMT-52"/>
      <use x="72.216797" xlink:href="#ArialMT-69"/>
      <use x="94.433594" xlink:href="#ArialMT-62"/>
      <use x="150.048828" xlink:href="#ArialMT-6f"/>
      <use x="205.664062" xlink:href="#ArialMT-73"/>
      <use x="255.664062" xlink:href="#ArialMT-6f"/>
      <use x="311.279297" xlink:href="#ArialMT-6d"/>
      <use x="394.580078" xlink:href="#ArialMT-65"/>
      <use x="450.195312" xlink:href="#ArialMT-20"/>
      <use x="477.978516" xlink:href="#ArialMT-70"/>
      <use x="533.59375" xlink:href="#ArialMT-6f"/>
      <use x="589.208984" xlink:href="#ArialMT-73"/>
      <use x="639.208984" xlink:href="#ArialMT-69"/>
      <use x="661.425781" xlink:href="#ArialMT-74"/>
      <use x="689.208984" xlink:href="#ArialMT-69"/>
      <use x="711.425781" xlink:href="#ArialMT-6f"/>
      <use x="767.041016" xlink:href="#ArialMT-6e"/>
     </g>
    </g>
   </g>
   <g id="matplotlib.axis_2">
    <g id="ytick_1">
     <g id="line2d_5">
      <defs>
       <path d="M 0 0 
L -3.5 0 
" id="m2a6aa36d84" style="stroke:#000000;stroke-width:0.8;"/>
      </defs>
      <g>
       <use style="stroke:#000000;stroke-width:0.8;" x="117.070313" xlink:href="#m2a6aa36d84" y="35.947266"/>
      </g>
     </g>
     <g id="text_6">
      <!-- 0 -->
      <g transform="translate(96.167969 44.894531)scale(0.25 -0.25)">
       <use xlink:href="#ArialMT-30"/>
      </g>
     </g>
    </g>
    <g id="ytick_2">
     <g id="line2d_6">
      <g>
       <use style="stroke:#000000;stroke-width:0.8;" x="117.070313" xlink:href="#m2a6aa36d84" y="127.092969"/>
      </g>
     </g>
     <g id="text_7">
      <!-- 200 -->
      <defs>
       <path d="M 50.34375 8.453125 
L 50.34375 0 
L 3.03125 0 
Q 2.9375 3.171875 4.046875 6.109375 
Q 5.859375 10.9375 9.828125 15.625 
Q 13.8125 20.3125 21.34375 26.46875 
Q 33.015625 36.03125 37.109375 41.625 
Q 41.21875 47.21875 41.21875 52.203125 
Q 41.21875 57.421875 37.46875 61 
Q 33.734375 64.59375 27.734375 64.59375 
Q 21.390625 64.59375 17.578125 60.78125 
Q 13.765625 56.984375 13.71875 50.25 
L 4.6875 51.171875 
Q 5.609375 61.28125 11.65625 66.578125 
Q 17.71875 71.875 27.9375 71.875 
Q 38.234375 71.875 44.234375 66.15625 
Q 50.25 60.453125 50.25 52 
Q 50.25 47.703125 48.484375 43.546875 
Q 46.734375 39.40625 42.65625 34.8125 
Q 38.578125 30.21875 29.109375 22.21875 
Q 21.1875 15.578125 18.9375 13.203125 
Q 16.703125 10.84375 15.234375 8.453125 
z
" id="ArialMT-32"/>
      </defs>
      <g transform="translate(68.363281 136.040234)scale(0.25 -0.25)">
       <use xlink:href="#ArialMT-32"/>
       <use x="55.615234" xlink:href="#ArialMT-30"/>
       <use x="111.230469" xlink:href="#ArialMT-30"/>
      </g>
     </g>
    </g>
    <g id="ytick_3">
     <g id="line2d_7">
      <g>
       <use style="stroke:#000000;stroke-width:0.8;" x="117.070313" xlink:href="#m2a6aa36d84" y="218.238672"/>
      </g>
     </g>
     <g id="text_8">
      <!-- 400 -->
      <defs>
       <path d="M 32.328125 0 
L 32.328125 17.140625 
L 1.265625 17.140625 
L 1.265625 25.203125 
L 33.9375 71.578125 
L 41.109375 71.578125 
L 41.109375 25.203125 
L 50.78125 25.203125 
L 50.78125 17.140625 
L 41.109375 17.140625 
L 41.109375 0 
z
M 32.328125 25.203125 
L 32.328125 57.46875 
L 9.90625 25.203125 
z
" id="ArialMT-34"/>
      </defs>
      <g transform="translate(68.363281 227.185938)scale(0.25 -0.25)">
       <use xlink:href="#ArialMT-34"/>
       <use x="55.615234" xlink:href="#ArialMT-30"/>
       <use x="111.230469" xlink:href="#ArialMT-30"/>
      </g>
     </g>
    </g>
    <g id="ytick_4">
     <g id="line2d_8">
      <g>
       <use style="stroke:#000000;stroke-width:0.8;" x="117.070313" xlink:href="#m2a6aa36d84" y="309.384375"/>
      </g>
     </g>
     <g id="text_9">
      <!-- 600 -->
      <defs>
       <path d="M 49.75 54.046875 
L 41.015625 53.375 
Q 39.84375 58.546875 37.703125 60.890625 
Q 34.125 64.65625 28.90625 64.65625 
Q 24.703125 64.65625 21.53125 62.3125 
Q 17.390625 59.28125 14.984375 53.46875 
Q 12.59375 47.65625 12.5 36.921875 
Q 15.671875 41.75 20.265625 44.09375 
Q 24.859375 46.4375 29.890625 46.4375 
Q 38.671875 46.4375 44.84375 39.96875 
Q 51.03125 33.5 51.03125 23.25 
Q 51.03125 16.5 48.125 10.71875 
Q 45.21875 4.9375 40.140625 1.859375 
Q 35.0625 -1.21875 28.609375 -1.21875 
Q 17.625 -1.21875 10.6875 6.859375 
Q 3.765625 14.9375 3.765625 33.5 
Q 3.765625 54.25 11.421875 63.671875 
Q 18.109375 71.875 29.4375 71.875 
Q 37.890625 71.875 43.28125 67.140625 
Q 48.6875 62.40625 49.75 54.046875 
z
M 13.875 23.1875 
Q 13.875 18.65625 15.796875 14.5 
Q 17.71875 10.359375 21.1875 8.171875 
Q 24.65625 6 28.46875 6 
Q 34.03125 6 38.03125 10.484375 
Q 42.046875 14.984375 42.046875 22.703125 
Q 42.046875 30.125 38.078125 34.390625 
Q 34.125 38.671875 28.125 38.671875 
Q 22.171875 38.671875 18.015625 34.390625 
Q 13.875 30.125 13.875 23.1875 
z
" id="ArialMT-36"/>
      </defs>
      <g transform="translate(68.363281 318.331641)scale(0.25 -0.25)">
       <use xlink:href="#ArialMT-36"/>
       <use x="55.615234" xlink:href="#ArialMT-30"/>
       <use x="111.230469" xlink:href="#ArialMT-30"/>
      </g>
     </g>
    </g>
    <g id="ytick_5">
     <g id="line2d_9">
      <g>
       <use style="stroke:#000000;stroke-width:0.8;" x="117.070313" xlink:href="#m2a6aa36d84" y="400.530078"/>
      </g>
     </g>
     <g id="text_10">
      <!-- 800 -->
      <defs>
       <path d="M 17.671875 38.8125 
Q 12.203125 40.828125 9.5625 44.53125 
Q 6.9375 48.25 6.9375 53.421875 
Q 6.9375 61.234375 12.546875 66.546875 
Q 18.171875 71.875 27.484375 71.875 
Q 36.859375 71.875 42.578125 66.421875 
Q 48.296875 60.984375 48.296875 53.171875 
Q 48.296875 48.1875 45.671875 44.5 
Q 43.0625 40.828125 37.75 38.8125 
Q 44.34375 36.671875 47.78125 31.875 
Q 51.21875 27.09375 51.21875 20.453125 
Q 51.21875 11.28125 44.71875 5.03125 
Q 38.234375 -1.21875 27.640625 -1.21875 
Q 17.046875 -1.21875 10.546875 5.046875 
Q 4.046875 11.328125 4.046875 20.703125 
Q 4.046875 27.6875 7.59375 32.390625 
Q 11.140625 37.109375 17.671875 38.8125 
z
M 15.921875 53.71875 
Q 15.921875 48.640625 19.1875 45.40625 
Q 22.46875 42.1875 27.6875 42.1875 
Q 32.765625 42.1875 36.015625 45.375 
Q 39.265625 48.578125 39.265625 53.21875 
Q 39.265625 58.0625 35.90625 61.359375 
Q 32.5625 64.65625 27.59375 64.65625 
Q 22.5625 64.65625 19.234375 61.421875 
Q 15.921875 58.203125 15.921875 53.71875 
z
M 13.09375 20.65625 
Q 13.09375 16.890625 14.875 13.375 
Q 16.65625 9.859375 20.171875 7.921875 
Q 23.6875 6 27.734375 6 
Q 34.03125 6 38.125 10.046875 
Q 42.234375 14.109375 42.234375 20.359375 
Q 42.234375 26.703125 38.015625 30.859375 
Q 33.796875 35.015625 27.4375 35.015625 
Q 21.234375 35.015625 17.15625 30.90625 
Q 13.09375 26.8125 13.09375 20.65625 
z
" id="ArialMT-38"/>
      </defs>
      <g transform="translate(68.363281 409.477344)scale(0.25 -0.25)">
       <use xlink:href="#ArialMT-38"/>
       <use x="55.615234" xlink:href="#ArialMT-30"/>
       <use x="111.230469" xlink:href="#ArialMT-30"/>
      </g>
     </g>
    </g>
    <g id="ytick_6">
     <g id="line2d_10">
      <g>
       <use style="stroke:#000000;stroke-width:0.8;" x="117.070313" xlink:href="#m2a6aa36d84" y="491.675781"/>
      </g>
     </g>
     <g id="text_11">
      <!-- 1000 -->
      <g transform="translate(54.460938 500.623047)scale(0.25 -0.25)">
       <use xlink:href="#ArialMT-31"/>
       <use x="55.615234" xlink:href="#ArialMT-30"/>
       <use x="111.230469" xlink:href="#ArialMT-30"/>
       <use x="166.845703" xlink:href="#ArialMT-30"/>
      </g>
     </g>
    </g>
    <g id="text_12">
     <!-- Time (sec) -->
     <defs>
      <path d="M 25.921875 0 
L 25.921875 63.140625 
L 2.34375 63.140625 
L 2.34375 71.578125 
L 59.078125 71.578125 
L 59.078125 63.140625 
L 35.40625 63.140625 
L 35.40625 0 
z
" id="ArialMT-54"/>
      <path d="M 23.390625 -21.046875 
Q 16.109375 -11.859375 11.078125 0.4375 
Q 6.0625 12.75 6.0625 25.921875 
Q 6.0625 37.546875 9.8125 48.1875 
Q 14.203125 60.546875 23.390625 72.796875 
L 29.6875 72.796875 
Q 23.78125 62.640625 21.875 58.296875 
Q 18.890625 51.5625 17.1875 44.234375 
Q 15.09375 35.109375 15.09375 25.875 
Q 15.09375 2.390625 29.6875 -21.046875 
z
" id="ArialMT-28"/>
      <path d="M 40.4375 19 
L 49.078125 17.875 
Q 47.65625 8.9375 41.8125 3.875 
Q 35.984375 -1.171875 27.484375 -1.171875 
Q 16.84375 -1.171875 10.375 5.78125 
Q 3.90625 12.75 3.90625 25.734375 
Q 3.90625 34.125 6.6875 40.421875 
Q 9.46875 46.734375 15.15625 49.875 
Q 20.84375 53.03125 27.546875 53.03125 
Q 35.984375 53.03125 41.359375 48.75 
Q 46.734375 44.484375 48.25 36.625 
L 39.703125 35.296875 
Q 38.484375 40.53125 35.375 43.15625 
Q 32.28125 45.796875 27.875 45.796875 
Q 21.234375 45.796875 17.078125 41.03125 
Q 12.9375 36.28125 12.9375 25.984375 
Q 12.9375 15.53125 16.9375 10.796875 
Q 20.953125 6.0625 27.390625 6.0625 
Q 32.5625 6.0625 36.03125 9.234375 
Q 39.5 12.40625 40.4375 19 
z
" id="ArialMT-63"/>
      <path d="M 12.359375 -21.046875 
L 6.0625 -21.046875 
Q 20.65625 2.390625 20.65625 25.875 
Q 20.65625 35.0625 18.5625 44.09375 
Q 16.890625 51.421875 13.921875 58.15625 
Q 12.015625 62.546875 6.0625 72.796875 
L 12.359375 72.796875 
Q 21.53125 60.546875 25.921875 48.1875 
Q 29.6875 37.546875 29.6875 25.921875 
Q 29.6875 12.75 24.625 0.4375 
Q 19.578125 -11.859375 12.359375 -21.046875 
z
" id="ArialMT-29"/>
     </defs>
     <g transform="translate(45.199219 322.829102)rotate(-90)scale(0.25 -0.25)">
      <use xlink:href="#ArialMT-54"/>
      <use x="61.037109" xlink:href="#ArialMT-69"/>
      <use x="83.253906" xlink:href="#ArialMT-6d"/>
      <use x="166.554688" xlink:href="#ArialMT-65"/>
      <use x="222.169922" xlink:href="#ArialMT-20"/>
      <use x="249.953125" xlink:href="#ArialMT-28"/>
      <use x="283.253906" xlink:href="#ArialMT-73"/>
      <use x="333.253906" xlink:href="#ArialMT-65"/>
      <use x="388.869141" xlink:href="#ArialMT-63"/>
      <use x="438.869141" xlink:href="#ArialMT-29"/>
     </g>
    </g>
   </g>
   <g id="line2d_11">
    <path clip-path="url(#p9366b277b7)" d="M 141.531331 36.859635 
L 145.568219 37.31582 
L 148.091274 37.772004 
L 157.174271 38.684374 
L 159.949632 39.140559 
L 161.211159 39.596743 
L 164.995742 40.509113 
L 177.106406 41.877667 
L 178.872544 42.333851 
L 184.927876 43.246221 
L 192.244736 44.15859 
L 195.777013 44.614775 
L 200.570817 45.07096 
L 202.08465 45.527144 
L 206.373844 45.983329 
L 208.896899 46.439514 
L 222.26909 48.264253 
L 225.296756 48.720437 
L 233.370532 49.632807 
L 234.884365 50.088991 
L 237.40742 50.545176 
L 242.201224 51.001361 
L 245.733501 51.457545 
L 246.995029 51.91373 
L 250.275 52.369915 
L 255.068805 53.282284 
L 261.376442 54.194654 
L 263.142581 54.650838 
L 265.41333 55.107023 
L 280.047049 57.387947 
L 287.363909 58.756501 
L 291.653102 59.212685 
L 293.923852 59.66887 
L 296.951517 60.125055 
L 298.717656 60.581239 
L 304.016071 61.493609 
L 305.78221 61.949794 
L 308.305265 62.405978 
L 310.071403 62.862163 
L 320.163623 64.230717 
L 326.471261 65.599271 
L 330.255843 66.511641 
L 337.572703 67.42401 
L 349.178756 68.792564 
L 350.944894 69.248749 
L 353.467949 69.704933 
L 354.729477 70.161118 
L 356.747921 70.617303 
L 362.298642 71.529672 
L 365.326308 72.442042 
L 374.409305 73.354411 
L 381.473859 74.26678 
L 385.763053 75.17915 
L 395.602967 76.547704 
L 401.910605 77.916258 
L 403.929049 78.372443 
L 406.704409 78.828627 
L 410.488992 79.284812 
L 412.507436 79.740997 
L 427.39346 81.565736 
L 428.402682 82.02192 
L 430.421126 82.478105 
L 431.934959 82.93429 
L 434.205709 83.390474 
L 435.467236 83.846659 
L 438.999513 84.302844 
L 441.522568 84.759029 
L 448.082511 85.671398 
L 449.596344 86.127583 
L 454.137843 86.583767 
L 456.660898 87.039952 
L 460.44548 87.496137 
L 468.266951 88.864691 
L 472.556144 89.320876 
L 475.079199 89.77706 
L 476.845338 90.233245 
L 480.377615 90.68943 
L 482.648364 91.145614 
L 486.432947 91.601799 
L 487.694474 92.057984 
L 490.974446 92.514168 
L 492.235973 92.970353 
L 496.020556 93.426538 
L 498.795916 93.882723 
L 512.168108 95.707461 
L 514.943468 96.163646 
L 518.72805 96.619831 
L 523.77416 97.5322 
L 528.063354 97.988385 
L 530.334103 98.44457 
L 530.586409 98.900754 
L 533.614075 99.356939 
L 535.127908 99.813124 
L 536.641741 100.725493 
L 540.174018 101.181678 
L 541.18324 101.637862 
L 548.247794 102.550232 
L 549.761627 103.006417 
L 552.032376 103.462601 
L 553.041598 103.918786 
L 556.826181 104.374971 
L 564.899957 105.743525 
L 567.170706 106.199709 
L 577.010621 107.112079 
L 588.112062 108.936818 
L 593.662783 109.393002 
L 595.176616 109.849187 
L 597.447366 110.305372 
L 601.484254 110.761556 
L 602.998087 111.217741 
L 608.044197 112.130111 
L 614.856445 113.04248 
L 614.856445 113.04248 
" style="fill:none;stroke:#ffffff;stroke-linecap:square;stroke-width:0.8;"/>
   </g>
   <g id="line2d_12">
    <path clip-path="url(#p9366b277b7)" d="M 141.783636 59.66887 
L 152.380467 60.581239 
L 154.398911 61.037424 
L 157.174271 61.493609 
L 160.958854 61.949794 
L 163.734214 62.405978 
L 164.995742 62.862163 
L 167.518797 63.318348 
L 189.21707 65.599271 
L 194.26318 66.511641 
L 200.318512 66.967825 
L 205.364622 67.880195 
L 207.13076 68.336379 
L 219.49373 70.161118 
L 234.127448 71.985857 
L 239.173558 72.442042 
L 242.201224 72.898226 
L 244.471974 73.354411 
L 251.284222 74.26678 
L 251.536528 74.722965 
L 259.357998 75.635335 
L 262.63797 76.547704 
L 270.964051 77.916258 
L 272.73019 78.372443 
L 278.028605 79.284812 
L 282.317799 79.740997 
L 286.859298 80.653366 
L 297.960739 82.02192 
L 299.474572 82.478105 
L 301.493016 82.93429 
L 305.529904 83.390474 
L 306.791432 83.846659 
L 316.631346 85.215213 
L 322.434373 85.671398 
L 324.452817 86.127583 
L 325.96665 86.583767 
L 327.985094 87.039952 
L 330.760454 87.496137 
L 332.778898 87.952321 
L 338.077314 88.864691 
L 341.861896 89.320876 
L 343.628035 89.77706 
L 357.000226 91.601799 
L 360.027892 92.057984 
L 371.381639 94.338907 
L 377.941582 95.251277 
L 379.455415 95.707461 
L 382.230776 96.163646 
L 383.744609 96.619831 
L 389.29533 97.5322 
L 393.332218 97.988385 
L 395.602967 98.44457 
L 397.369106 99.356939 
L 401.153688 100.269308 
L 402.667521 100.725493 
L 404.938271 101.181678 
L 410.993603 103.006417 
L 417.805851 104.374971 
L 425.627322 105.28734 
L 427.141155 105.743525 
L 443.793317 108.024448 
L 447.5779 108.936818 
L 449.596344 109.393002 
L 455.903981 110.305372 
L 463.473146 111.217741 
L 466.753118 111.673926 
L 471.799228 112.130111 
L 475.079199 112.586295 
L 479.368393 113.498665 
L 481.891448 113.954849 
L 485.171419 114.411034 
L 488.956002 115.323403 
L 491.479057 115.779588 
L 491.731362 116.235773 
L 494.506723 116.691958 
L 496.272861 117.148142 
L 507.121998 118.516696 
L 511.663497 118.972881 
L 513.17733 119.429066 
L 529.577187 121.709989 
L 530.838714 122.166174 
L 540.930934 123.990913 
L 546.481655 124.447097 
L 547.238572 124.903282 
L 553.041598 126.271836 
L 556.069264 126.728021 
L 560.863069 127.64039 
L 562.124596 128.096575 
L 567.170706 129.008944 
L 570.450678 129.465129 
L 576.001399 129.921314 
L 584.832091 131.289868 
L 587.355146 131.746053 
L 591.896645 132.202237 
L 595.176616 132.658422 
L 595.428922 133.114607 
L 598.456588 133.570791 
L 602.493476 134.483161 
L 606.782669 134.939346 
L 609.305724 135.39553 
L 612.838001 135.851715 
L 612.838001 135.851715 
" style="fill:none;stroke:#ffffff;stroke-linecap:square;stroke-width:0.8;"/>
   </g>
   <g id="line2d_13">
    <path clip-path="url(#p9366b277b7)" d="M 141.783636 66.967825 
L 155.155827 68.336379 
L 160.201937 69.248749 
L 167.014186 70.161118 
L 171.555685 71.073488 
L 174.583351 71.529672 
L 175.340267 71.985857 
L 178.367933 72.442042 
L 182.404821 72.898226 
L 187.450931 73.810596 
L 190.478597 74.26678 
L 192.497041 74.722965 
L 198.300068 75.17915 
L 200.570817 75.635335 
L 202.08465 76.091519 
L 204.3554 76.547704 
L 209.149204 77.003889 
L 212.429176 77.460073 
L 219.998341 78.372443 
L 223.530617 78.828627 
L 226.053672 79.284812 
L 229.333644 79.740997 
L 230.09056 80.197182 
L 234.632059 80.653366 
L 240.435086 81.565736 
L 246.742723 82.478105 
L 248.004251 82.93429 
L 250.022695 83.390474 
L 253.050361 83.846659 
L 260.114915 84.759029 
L 264.908719 85.671398 
L 268.440996 86.127583 
L 272.73019 87.039952 
L 273.487106 87.496137 
L 282.570104 88.408506 
L 284.336243 88.864691 
L 290.64388 89.77706 
L 294.428463 90.68943 
L 297.708434 91.145614 
L 305.78221 92.057984 
L 308.052959 92.514168 
L 312.342153 92.970353 
L 314.360597 93.426538 
L 315.87443 93.882723 
L 325.462039 95.707461 
L 331.265065 96.619831 
L 334.040426 97.076015 
L 337.825008 97.5322 
L 339.843452 97.988385 
L 342.871118 98.44457 
L 346.655701 98.900754 
L 356.24331 100.725493 
L 360.027892 101.181678 
L 364.317086 102.094047 
L 370.624723 103.006417 
L 387.529191 105.743525 
L 389.29533 106.199709 
L 395.855273 107.112079 
L 411.498214 109.393002 
L 412.507436 109.849187 
L 423.861183 111.217741 
L 427.898071 111.673926 
L 430.925737 112.130111 
L 433.196487 112.586295 
L 436.224153 113.498665 
L 443.541012 114.867219 
L 445.559456 115.323403 
L 446.820983 115.779588 
L 452.62401 116.691958 
L 457.165509 117.604327 
L 458.679342 118.060512 
L 463.725452 118.972881 
L 464.482368 119.429066 
L 466.248507 119.88525 
L 477.602254 121.253805 
L 480.882226 121.709989 
L 488.956002 122.622359 
L 490.72214 123.078543 
L 491.983668 123.534728 
L 507.626609 125.815652 
L 513.429635 126.728021 
L 515.700384 127.184206 
L 516.457301 127.64039 
L 521.755716 128.096575 
L 525.287993 128.55276 
L 530.586409 129.465129 
L 531.847936 129.921314 
L 533.86638 130.377499 
L 534.623297 130.833683 
L 538.660185 131.289868 
L 541.940156 132.202237 
L 552.032376 133.570791 
L 560.610763 134.939346 
L 567.675317 135.851715 
L 571.207594 136.764084 
L 581.047509 138.588823 
L 584.579786 139.045008 
L 586.59823 139.501193 
L 593.662783 140.413562 
L 595.176616 140.869747 
L 600.727337 141.782116 
L 614.60414 143.606855 
L 614.60414 143.606855 
" style="fill:none;stroke:#ffffff;stroke-linecap:square;stroke-width:0.8;"/>
   </g>
   <g id="line2d_14">
    <path clip-path="url(#p9366b277b7)" d="M 143.80208 80.197182 
L 154.398911 81.565736 
L 156.921966 82.02192 
L 160.454243 82.478105 
L 166.76188 84.302844 
L 176.349489 85.671398 
L 178.367933 86.127583 
L 181.395599 86.583767 
L 185.432487 87.039952 
L 188.207848 87.496137 
L 191.740125 87.952321 
L 197.543151 88.408506 
L 212.429176 90.233245 
L 214.44762 90.68943 
L 217.22298 91.145614 
L 221.007563 91.601799 
L 223.782923 92.057984 
L 225.04445 92.514168 
L 233.875143 94.338907 
L 241.948919 95.251277 
L 243.210446 95.707461 
L 248.256556 96.619831 
L 255.825721 97.988385 
L 266.170247 99.356939 
L 274.496328 100.269308 
L 276.262467 100.725493 
L 282.317799 101.181678 
L 286.102381 102.094047 
L 290.139269 102.550232 
L 291.653102 103.006417 
L 291.653102 103.918786 
L 292.662324 104.374971 
L 296.194601 104.831155 
L 300.483794 105.743525 
L 304.772988 106.199709 
L 305.78221 106.655894 
L 309.566792 107.568264 
L 312.089847 108.024448 
L 319.154401 108.936818 
L 321.172845 109.393002 
L 322.434373 109.849187 
L 324.452817 110.305372 
L 325.96665 110.761556 
L 331.517371 111.673926 
L 334.797342 112.130111 
L 336.815786 112.586295 
L 339.843452 113.04248 
L 344.384951 113.498665 
L 350.692589 114.867219 
L 352.206422 115.323403 
L 358.009448 116.235773 
L 360.027892 116.691958 
L 371.633945 118.516696 
L 374.913916 118.972881 
L 376.175444 119.429066 
L 382.735387 120.341435 
L 385.006136 120.79762 
L 388.286108 121.253805 
L 390.809163 122.166174 
L 394.089134 122.622359 
L 396.864495 123.534728 
L 401.153688 123.990913 
L 402.919827 124.447097 
L 407.461326 124.903282 
L 410.741297 125.815652 
L 418.562768 127.184206 
L 422.095045 127.64039 
L 424.113489 128.096575 
L 430.673432 129.008944 
L 444.045623 130.833683 
L 445.811761 131.289868 
L 450.35326 132.202237 
L 454.137843 132.658422 
L 456.408592 133.114607 
L 457.67012 133.570791 
L 464.482368 134.483161 
L 465.239285 134.939346 
L 473.817672 135.851715 
L 477.602254 136.764084 
L 480.62992 137.220269 
L 484.414503 137.676454 
L 486.937558 138.132638 
L 490.217529 139.045008 
L 491.983668 139.501193 
L 494.506723 139.957377 
L 496.272861 140.413562 
L 514.186552 142.238301 
L 516.709606 142.694486 
L 524.026466 143.606855 
L 527.558743 144.06304 
L 530.081798 144.519224 
L 531.847936 144.975409 
L 539.669407 145.887778 
L 542.192462 146.343963 
L 543.453989 146.800148 
L 553.293904 148.168702 
L 557.835403 149.081071 
L 563.890735 150.449625 
L 566.918401 150.90581 
L 571.207594 151.361995 
L 581.047509 153.186734 
L 584.579786 153.642918 
L 587.102841 154.099103 
L 590.887423 154.555288 
L 592.653561 155.011472 
L 597.699671 155.923842 
L 601.484254 156.380027 
L 606.530364 157.292396 
L 611.324168 158.204765 
L 611.324168 158.204765 
" style="fill:none;stroke:#ffffff;stroke-linecap:square;stroke-width:0.8;"/>
   </g>
   <g id="line2d_15">
    <path clip-path="url(#p9366b277b7)" d="M 143.297469 99.356939 
L 147.334357 99.813124 
L 153.389689 100.725493 
L 154.903522 101.181678 
L 160.201937 101.637862 
L 163.481909 102.094047 
L 164.491131 102.550232 
L 167.266491 103.006417 
L 169.284935 103.462601 
L 172.312601 103.918786 
L 177.358711 104.374971 
L 182.909432 105.28734 
L 187.450931 105.743525 
L 190.478597 106.199709 
L 194.26318 106.655894 
L 199.813901 107.112079 
L 203.850789 108.024448 
L 212.681481 108.936818 
L 218.989119 109.849187 
L 222.521396 110.305372 
L 227.567505 110.761556 
L 234.379754 111.673926 
L 236.145892 112.130111 
L 238.416642 112.586295 
L 246.995029 113.954849 
L 249.770389 114.411034 
L 251.788833 114.867219 
L 254.816499 115.323403 
L 256.078027 115.779588 
L 260.114915 116.235773 
L 262.385664 116.691958 
L 263.142581 117.148142 
L 273.487106 118.972881 
L 287.86852 120.79762 
L 289.130047 121.253805 
L 291.653102 121.709989 
L 293.166935 122.166174 
L 295.437685 122.622359 
L 299.474572 123.078543 
L 303.763766 123.990913 
L 310.576014 125.359467 
L 313.60368 125.815652 
L 317.892874 126.271836 
L 319.911318 126.728021 
L 326.218955 127.64039 
L 330.508149 128.096575 
L 332.526593 128.55276 
L 338.581925 129.008944 
L 350.440283 130.833683 
L 352.458727 131.289868 
L 356.24331 131.746053 
L 359.01867 132.202237 
L 362.550947 132.658422 
L 364.821697 133.114607 
L 368.353974 133.570791 
L 370.372417 134.026976 
L 380.716943 135.851715 
L 382.230776 136.3079 
L 382.987692 136.764084 
L 384.753831 137.220269 
L 388.538413 137.676454 
L 394.846051 139.045008 
L 396.864495 139.501193 
L 399.38755 139.957377 
L 401.153688 140.413562 
L 408.218242 141.325931 
L 410.741297 141.782116 
L 414.021269 142.238301 
L 416.039713 142.694486 
L 418.562768 143.15067 
L 427.645766 144.06304 
L 432.187265 144.975409 
L 444.045623 146.343963 
L 447.325594 146.800148 
L 451.110177 147.712517 
L 455.651676 148.168702 
L 457.165509 148.624887 
L 460.950091 149.081071 
L 466.248507 149.993441 
L 471.546922 150.449625 
L 488.703696 152.730549 
L 490.72214 153.186734 
L 492.235973 153.642918 
L 498.039 154.555288 
L 501.823582 155.011472 
L 503.842026 155.467657 
L 506.869692 155.923842 
L 514.438857 156.836211 
L 516.709606 157.292396 
L 522.764938 157.748581 
L 524.531077 158.204765 
L 527.306437 158.66095 
L 530.586409 159.573319 
L 535.127908 160.485689 
L 538.91249 160.941874 
L 543.453989 161.854243 
L 556.826181 163.678982 
L 558.340014 164.135166 
L 562.629207 164.591351 
L 566.918401 165.503721 
L 568.179928 165.959905 
L 571.964511 166.41609 
L 574.739871 166.872275 
L 576.001399 167.328459 
L 579.029065 167.784644 
L 580.038287 168.240829 
L 583.570564 168.697013 
L 588.616673 169.609383 
L 593.662783 170.065568 
L 596.438144 170.521752 
L 614.099529 172.346491 
L 614.099529 172.346491 
" style="fill:none;stroke:#ffffff;stroke-linecap:square;stroke-width:0.8;"/>
   </g>
   <g id="line2d_16">
    <path clip-path="url(#p9366b277b7)" d="M 145.820524 145.887778 
L 154.398911 146.800148 
L 157.931188 147.256333 
L 160.454243 147.712517 
L 160.958854 148.168702 
L 162.977298 148.624887 
L 165.752658 149.081071 
L 167.771102 149.537256 
L 169.284935 149.993441 
L 187.450931 152.274364 
L 193.758569 153.186734 
L 205.112316 154.555288 
L 207.887677 155.011472 
L 209.906121 155.467657 
L 212.933787 155.923842 
L 218.484508 156.380027 
L 223.026006 157.292396 
L 226.053672 158.204765 
L 236.145892 159.573319 
L 241.192002 160.029504 
L 243.715057 160.485689 
L 244.724279 160.941874 
L 247.247334 161.398058 
L 249.013473 162.310428 
L 251.284222 162.766612 
L 252.293444 163.222797 
L 255.068805 163.678982 
L 256.834943 164.135166 
L 260.114915 164.591351 
L 261.376442 165.047536 
L 263.394886 165.503721 
L 266.927163 165.959905 
L 268.440996 166.41609 
L 271.468662 166.872275 
L 276.514772 167.328459 
L 277.7763 167.784644 
L 281.813188 168.240829 
L 282.570104 168.697013 
L 292.662324 170.065568 
L 296.951517 170.521752 
L 298.969961 170.977937 
L 308.55757 172.346491 
L 316.126735 173.715045 
L 320.668234 174.17123 
L 324.452817 175.083599 
L 328.74201 175.995969 
L 338.077314 177.364523 
L 340.095758 177.820707 
L 346.655701 178.733077 
L 348.674145 179.189262 
L 350.187978 179.645446 
L 362.550947 181.470185 
L 378.193888 183.294924 
L 380.464637 183.751109 
L 380.969248 184.207293 
L 383.239998 184.663478 
L 388.286108 185.119663 
L 390.304552 185.575847 
L 397.621411 186.488217 
L 398.630633 186.944401 
L 401.405994 187.400586 
L 403.172132 187.856771 
L 406.704409 188.312956 
L 411.498214 189.225325 
L 414.273574 189.68151 
L 423.861183 190.593879 
L 427.39346 191.050064 
L 429.159599 191.506248 
L 431.934959 191.962433 
L 432.944181 192.418618 
L 434.962625 192.874803 
L 440.008735 193.787172 
L 441.522568 194.243357 
L 444.297928 194.699541 
L 446.316372 195.155726 
L 448.839427 195.611911 
L 455.39937 196.52428 
L 459.940869 197.43665 
L 461.202397 197.892834 
L 463.725452 198.349019 
L 463.725452 198.805204 
L 464.230063 199.261388 
L 466.753118 199.717573 
L 473.060755 200.173758 
L 477.097643 200.629942 
L 479.620698 201.086127 
L 489.460613 202.454681 
L 491.731362 203.367051 
L 494.506723 203.823235 
L 495.515945 204.27942 
L 497.786694 204.735605 
L 506.112776 205.647974 
L 507.878914 206.104159 
L 510.149664 206.560344 
L 513.934246 207.016528 
L 516.709606 207.472713 
L 521.755716 207.928898 
L 527.306437 208.841267 
L 529.324881 209.297452 
L 533.109464 209.753636 
L 535.632519 210.209821 
L 539.669407 210.666006 
L 541.687851 211.122191 
L 547.995488 212.03456 
L 554.807737 213.403114 
L 563.386124 214.771668 
L 564.395346 215.227853 
L 572.216816 216.596407 
L 579.029065 217.508776 
L 580.542898 217.964961 
L 592.653561 219.7897 
L 594.924311 220.245885 
L 595.428922 220.702069 
L 600.475032 221.614439 
L 604.259614 222.070623 
L 612.838001 223.439177 
L 612.838001 223.439177 
" style="fill:none;stroke:#ffffff;stroke-linecap:square;stroke-width:0.8;"/>
   </g>
   <g id="line2d_17">
    <path clip-path="url(#p9366b277b7)" d="M 141.279025 148.624887 
L 144.054386 149.081071 
L 147.586663 149.537256 
L 152.380467 149.993441 
L 153.389689 150.449625 
L 159.949632 151.361995 
L 173.321823 153.186734 
L 176.097184 153.642918 
L 178.115628 154.099103 
L 202.08465 156.836211 
L 206.373844 157.748581 
L 206.373844 158.204765 
L 208.644593 158.66095 
L 212.933787 159.117135 
L 218.736813 160.029504 
L 222.26909 160.485689 
L 224.287534 160.941874 
L 225.296756 161.398058 
L 232.613615 162.310428 
L 239.425864 163.222797 
L 243.715057 164.135166 
L 252.54575 165.503721 
L 257.087249 165.959905 
L 268.188691 167.784644 
L 272.477884 168.240829 
L 273.991717 168.697013 
L 277.019383 169.153198 
L 281.560882 169.609383 
L 283.831632 170.065568 
L 289.634658 170.977937 
L 291.905408 171.434122 
L 292.91463 171.890306 
L 294.933074 172.346491 
L 297.708434 172.802676 
L 301.997627 173.25886 
L 302.249933 173.715045 
L 304.268377 174.17123 
L 307.800654 174.627415 
L 311.585236 175.539784 
L 320.163623 176.908338 
L 322.434373 177.364523 
L 322.434373 177.820707 
L 330.003538 178.733077 
L 330.760454 179.189262 
L 332.526593 179.645446 
L 338.329619 180.557816 
L 344.384951 181.470185 
L 348.421839 181.92637 
L 351.449505 182.382554 
L 356.24331 183.294924 
L 359.01867 183.751109 
L 360.280198 184.207293 
L 362.803253 184.663478 
L 373.400083 186.032032 
L 378.950804 186.944401 
L 382.483081 187.400586 
L 384.24922 187.856771 
L 394.593745 189.225325 
L 399.38755 189.68151 
L 405.190576 190.593879 
L 406.956715 191.050064 
L 411.750519 191.962433 
L 412.507436 192.418618 
L 419.067379 193.330987 
L 427.898071 194.699541 
L 428.654988 195.155726 
L 432.691876 195.611911 
L 434.458014 196.068095 
L 434.962625 196.52428 
L 440.261041 197.43665 
L 442.027179 197.892834 
L 445.559456 198.349019 
L 445.559456 198.805204 
L 457.922425 200.173758 
L 464.230063 201.542312 
L 464.734674 201.998497 
L 469.528478 202.454681 
L 472.556144 202.910866 
L 479.368393 204.27942 
L 480.882226 204.735605 
L 487.94678 205.647974 
L 489.208307 206.104159 
L 496.525167 207.016528 
L 500.81436 207.928898 
L 507.626609 208.841267 
L 515.195773 210.209821 
L 516.709606 210.666006 
L 524.026466 212.03456 
L 528.063354 212.490745 
L 530.838714 212.946929 
L 531.595631 213.403114 
L 534.118686 213.859299 
L 534.875602 214.315483 
L 538.91249 214.771668 
L 543.453989 215.684038 
L 546.986266 216.140222 
L 547.490877 216.596407 
L 555.564653 217.964961 
L 556.573875 218.421146 
L 566.918401 220.245885 
L 570.198372 220.702069 
L 572.216816 221.158254 
L 573.478344 221.614439 
L 575.244482 222.070623 
L 576.50601 222.526808 
L 589.121284 224.807732 
L 593.158172 225.263916 
L 595.176616 225.720101 
L 596.185838 226.176286 
L 597.951977 226.63247 
L 601.736559 227.088655 
L 604.259614 227.54484 
L 608.296502 228.001024 
L 610.819557 228.457209 
L 610.819557 228.457209 
" style="fill:none;stroke:#ffffff;stroke-linecap:square;stroke-width:0.8;"/>
   </g>
   <g id="line2d_18">
    <path clip-path="url(#p9366b277b7)" d="M 145.063608 159.117135 
L 147.334357 159.573319 
L 159.949632 160.941874 
L 169.789546 162.766612 
L 171.80799 163.222797 
L 178.872544 164.135166 
L 180.134072 164.591351 
L 182.404821 165.047536 
L 185.684793 165.503721 
L 195.020096 167.328459 
L 200.823123 167.784644 
L 207.13076 168.697013 
L 212.933787 169.609383 
L 216.718369 170.065568 
L 218.484508 170.521752 
L 222.26909 170.977937 
L 224.539839 171.434122 
L 228.829033 171.890306 
L 230.847477 172.346491 
L 236.650503 173.25886 
L 243.210446 174.17123 
L 245.22889 174.627415 
L 247.751945 175.083599 
L 251.031917 175.539784 
L 253.050361 175.995969 
L 259.105693 176.908338 
L 262.385664 177.364523 
L 263.899497 177.820707 
L 281.056271 180.101631 
L 283.074715 180.557816 
L 286.102381 181.470185 
L 291.905408 182.382554 
L 294.176157 183.294924 
L 298.717656 183.751109 
L 301.997627 184.207293 
L 303.763766 184.663478 
L 321.929762 186.944401 
L 323.191289 187.400586 
L 327.480483 187.856771 
L 328.994316 188.312956 
L 332.274287 188.76914 
L 346.403395 190.137694 
L 348.92645 190.593879 
L 355.486393 191.506248 
L 357.504837 191.962433 
L 361.037114 192.418618 
L 365.830919 192.874803 
L 368.858584 193.330987 
L 369.867806 193.787172 
L 372.895472 194.243357 
L 377.941582 194.699541 
L 378.698499 195.155726 
L 382.987692 196.068095 
L 383.744609 196.52428 
L 391.061468 197.892834 
L 395.350662 198.349019 
L 397.369106 198.805204 
L 401.153688 199.261388 
L 402.667521 199.717573 
L 407.965937 200.173758 
L 410.741297 200.629942 
L 415.282796 201.086127 
L 417.805851 201.542312 
L 427.141155 202.454681 
L 428.654988 202.910866 
L 431.934959 203.367051 
L 432.691876 203.823235 
L 435.214931 204.27942 
L 436.224153 204.735605 
L 438.494902 205.191789 
L 441.522568 205.647974 
L 443.793317 206.104159 
L 444.045623 206.560344 
L 447.5779 207.016528 
L 449.596344 207.472713 
L 451.110177 207.928898 
L 455.147065 208.385082 
L 459.436258 209.297452 
L 462.968535 209.753636 
L 465.239285 210.209821 
L 471.294617 210.666006 
L 486.180641 212.946929 
L 489.460613 213.859299 
L 492.740584 214.315483 
L 494.506723 214.771668 
L 502.328193 216.140222 
L 506.112776 216.596407 
L 507.878914 217.052592 
L 512.420413 217.508776 
L 514.943468 217.964961 
L 516.457301 218.421146 
L 518.475745 218.87733 
L 526.04491 219.7897 
L 528.315659 220.245885 
L 531.343325 220.702069 
L 539.669407 221.614439 
L 540.678629 222.070623 
L 550.518543 223.439177 
L 555.564653 224.351547 
L 560.863069 225.263916 
L 564.647651 225.720101 
L 569.18915 226.63247 
L 572.721427 227.088655 
L 585.084397 229.369579 
L 589.121284 229.825763 
L 591.896645 230.281948 
L 593.662783 230.738133 
L 596.438144 231.194317 
L 598.204282 231.650502 
L 606.025753 232.562871 
L 607.034975 233.019056 
L 609.305724 233.475241 
L 613.342612 233.931426 
L 613.342612 233.931426 
" style="fill:none;stroke:#ffffff;stroke-linecap:square;stroke-width:0.8;"/>
   </g>
   <g id="line2d_19">
    <path clip-path="url(#p9366b277b7)" d="M 143.045164 159.573319 
L 159.949632 161.854243 
L 162.724992 162.310428 
L 164.995742 163.222797 
L 166.257269 163.678982 
L 170.294157 164.135166 
L 172.312601 164.591351 
L 177.611017 165.047536 
L 180.386377 165.503721 
L 186.94632 166.41609 
L 189.21707 166.872275 
L 201.832345 168.697013 
L 202.08465 169.153198 
L 214.44762 170.977937 
L 215.456842 171.434122 
L 221.259868 171.890306 
L 230.595171 173.25886 
L 232.109004 173.715045 
L 234.379754 174.17123 
L 249.013473 176.452153 
L 251.284222 176.908338 
L 255.825721 177.364523 
L 257.844165 177.820707 
L 270.711746 179.645446 
L 279.794744 180.557816 
L 280.55166 181.014 
L 290.139269 182.838739 
L 291.653102 183.294924 
L 296.194601 183.751109 
L 297.960739 184.207293 
L 320.415929 187.400586 
L 322.182067 187.856771 
L 334.545037 189.68151 
L 346.15109 191.050064 
L 351.954116 191.962433 
L 353.720255 192.418618 
L 357.504837 192.874803 
L 358.009448 193.330987 
L 360.784809 193.787172 
L 370.120112 194.699541 
L 371.129334 195.155726 
L 380.212332 196.068095 
L 381.221554 196.52428 
L 383.239998 196.980465 
L 388.286108 197.892834 
L 390.556857 198.349019 
L 392.07069 198.805204 
L 395.855273 199.261388 
L 397.873717 199.717573 
L 401.405994 200.173758 
L 406.452104 200.629942 
L 407.965937 201.086127 
L 414.021269 201.998497 
L 416.292018 202.454681 
L 423.861183 203.367051 
L 428.907293 204.27942 
L 429.411904 204.735605 
L 431.682654 205.191789 
L 440.008735 206.104159 
L 443.288706 207.016528 
L 445.054845 207.472713 
L 449.848649 208.385082 
L 456.156287 209.297452 
L 458.174731 209.753636 
L 461.707008 210.209821 
L 463.220841 210.666006 
L 473.060755 211.578375 
L 474.574588 212.03456 
L 477.349949 212.490745 
L 483.909892 213.403114 
L 491.983668 214.771668 
L 493.245195 215.227853 
L 497.282083 215.684038 
L 500.309749 216.596407 
L 510.149664 217.964961 
L 514.438857 218.87733 
L 515.195773 219.333515 
L 517.718828 219.7897 
L 528.315659 221.158254 
L 530.081798 221.614439 
L 532.857158 222.070623 
L 541.18324 222.982993 
L 543.9586 223.895362 
L 554.05082 225.263916 
L 560.106152 226.176286 
L 560.863069 226.63247 
L 563.133818 227.088655 
L 564.14304 227.54484 
L 567.170706 228.001024 
L 571.964511 228.457209 
L 574.992177 228.913394 
L 583.065953 229.825763 
L 587.355146 230.738133 
L 590.130506 231.194317 
L 593.662783 231.650502 
L 595.428922 232.106687 
L 598.204282 232.562871 
L 606.530364 233.475241 
L 612.838001 234.38761 
L 612.838001 234.38761 
" style="fill:none;stroke:#ffffff;stroke-linecap:square;stroke-width:0.8;"/>
   </g>
   <g id="line2d_20">
    <path clip-path="url(#p9366b277b7)" d="M 141.783636 174.17123 
L 145.568219 174.627415 
L 150.362023 175.083599 
L 160.201937 176.452153 
L 161.211159 176.908338 
L 163.229603 177.364523 
L 164.491131 177.820707 
L 164.743436 178.276892 
L 168.023408 178.733077 
L 171.303379 179.645446 
L 179.881766 180.557816 
L 182.152516 181.014 
L 193.253958 182.382554 
L 205.616927 183.751109 
L 207.887677 184.207293 
L 215.709147 185.119663 
L 218.736813 185.575847 
L 222.773701 186.032032 
L 225.549061 186.488217 
L 229.585949 186.944401 
L 235.13667 187.856771 
L 242.201224 188.76914 
L 243.715057 189.225325 
L 249.518084 190.137694 
L 251.284222 190.593879 
L 251.284222 191.050064 
L 255.068805 191.506248 
L 257.087249 191.962433 
L 263.394886 192.874803 
L 271.216357 193.787172 
L 275.000939 194.699541 
L 280.55166 195.155726 
L 284.588548 195.611911 
L 284.840854 196.068095 
L 287.86852 196.52428 
L 290.139269 196.980465 
L 291.653102 197.43665 
L 296.951517 198.349019 
L 308.305265 199.717573 
L 315.117513 201.086127 
L 318.64979 201.542312 
L 321.172845 201.998497 
L 321.929762 202.454681 
L 325.209733 203.367051 
L 328.74201 203.823235 
L 333.78812 204.735605 
L 340.348063 205.647974 
L 342.366507 206.104159 
L 344.889562 206.560344 
L 348.169534 207.016528 
L 350.440283 207.472713 
L 354.981782 207.928898 
L 357.000226 208.385082 
L 360.532503 208.841267 
L 362.046336 209.297452 
L 369.615501 210.209821 
L 373.400083 210.666006 
L 375.418527 211.122191 
L 378.698499 211.578375 
L 380.969248 212.03456 
L 382.230776 212.490745 
L 386.519969 213.403114 
L 388.790719 213.859299 
L 390.052246 214.315483 
L 394.593745 214.771668 
L 396.107578 215.227853 
L 400.396772 216.140222 
L 401.910605 216.596407 
L 405.190576 217.052592 
L 406.452104 217.508776 
L 411.245908 218.421146 
L 428.150377 220.702069 
L 431.934959 221.158254 
L 434.205709 221.614439 
L 435.214931 222.070623 
L 438.999513 222.526808 
L 441.017957 222.982993 
L 442.027179 223.439177 
L 443.793317 223.895362 
L 460.193175 226.63247 
L 462.463924 227.088655 
L 464.986979 228.001024 
L 474.322283 229.369579 
L 476.845338 229.825763 
L 484.162197 230.738133 
L 487.94678 231.194317 
L 489.460613 231.650502 
L 495.011334 232.562871 
L 499.300527 233.019056 
L 506.112776 234.38761 
L 509.645053 234.843795 
L 511.663497 235.29998 
L 512.672719 235.756164 
L 519.737272 236.668534 
L 522.260327 237.124718 
L 524.026466 237.580903 
L 532.857158 238.949457 
L 537.146352 239.861827 
L 539.669407 240.318011 
L 540.174018 240.774196 
L 542.192462 241.230381 
L 549.00471 242.14275 
L 549.761627 242.598935 
L 557.583097 243.511304 
L 563.133818 244.423674 
L 564.899957 244.879858 
L 572.469122 245.792228 
L 576.50601 246.248412 
L 581.804425 247.160782 
L 584.832091 247.616967 
L 590.130506 248.073151 
L 593.662783 248.529336 
L 593.662783 248.985521 
L 602.24117 250.354075 
L 610.567252 251.266444 
L 613.594918 251.722629 
L 613.594918 251.722629 
" style="fill:none;stroke:#ffffff;stroke-linecap:square;stroke-width:0.8;"/>
   </g>
   <g id="line2d_21">
    <path clip-path="url(#p9366b277b7)" d="M 142.035942 189.225325 
L 145.568219 189.68151 
L 151.118939 190.137694 
L 154.398911 190.593879 
L 158.435799 191.506248 
L 164.491131 192.874803 
L 170.294157 193.787172 
L 171.80799 194.243357 
L 175.340267 194.699541 
L 177.358711 195.155726 
L 182.404821 196.068095 
L 183.918654 196.52428 
L 188.460153 197.43665 
L 196.029318 198.349019 
L 217.475286 201.086127 
L 223.782923 201.542312 
L 230.09056 202.454681 
L 231.856699 202.910866 
L 234.884365 203.367051 
L 243.715057 205.191789 
L 245.481196 205.647974 
L 248.256556 206.104159 
L 250.022695 206.560344 
L 251.284222 207.016528 
L 251.536528 207.472713 
L 256.582638 208.385082 
L 259.357998 208.841267 
L 261.124137 209.297452 
L 264.404108 209.753636 
L 269.954829 210.209821 
L 282.317799 212.03456 
L 284.083937 212.490745 
L 290.391575 212.946929 
L 293.671546 213.859299 
L 300.7361 214.771668 
L 305.277599 215.227853 
L 307.296043 215.684038 
L 313.351375 216.596407 
L 315.369819 217.052592 
L 323.948206 217.964961 
L 330.508149 218.87733 
L 331.01276 219.333515 
L 335.049648 219.7897 
L 338.077314 220.245885 
L 345.646479 221.158254 
L 346.908006 221.614439 
L 363.307864 223.439177 
L 365.830919 223.895362 
L 369.867806 224.351547 
L 370.877028 224.807732 
L 374.661611 225.263916 
L 376.175444 225.720101 
L 378.950804 226.176286 
L 380.464637 226.63247 
L 386.015358 227.54484 
L 395.098356 228.913394 
L 395.602967 229.369579 
L 398.630633 229.825763 
L 400.144466 230.281948 
L 408.975159 231.650502 
L 411.245908 232.106687 
L 418.310462 233.019056 
L 427.645766 233.931426 
L 429.159599 234.38761 
L 435.214931 235.29998 
L 440.008735 236.212349 
L 443.541012 236.668534 
L 445.559456 237.124718 
L 448.839427 237.580903 
L 450.605566 238.037088 
L 456.913203 238.949457 
L 459.436258 239.405642 
L 460.697786 239.861827 
L 462.463924 240.318011 
L 464.734674 241.230381 
L 468.771562 242.14275 
L 471.546922 242.598935 
L 473.565366 243.05512 
L 482.396059 244.423674 
L 486.180641 244.879858 
L 491.731362 245.792228 
L 502.328193 247.616967 
L 504.094332 248.073151 
L 506.617387 248.529336 
L 510.654275 248.985521 
L 515.448079 249.89789 
L 521.755716 250.810259 
L 524.531077 251.722629 
L 536.13713 253.547368 
L 539.164796 254.003552 
L 540.678629 254.459737 
L 549.00471 255.828291 
L 560.610763 257.196845 
L 562.629207 257.65303 
L 564.14304 258.109215 
L 569.18915 258.565399 
L 575.244482 259.477769 
L 585.841313 260.846323 
L 586.59823 261.302508 
L 592.14895 261.758692 
L 594.672005 262.214877 
L 613.090307 264.4958 
L 613.090307 264.4958 
" style="fill:none;stroke:#ffffff;stroke-linecap:square;stroke-width:0.8;"/>
   </g>
   <g id="line2d_22">
    <path clip-path="url(#p9366b277b7)" d="M 142.792858 221.158254 
L 150.362023 222.070623 
L 154.651216 222.982993 
L 158.688104 223.439177 
L 163.734214 224.351547 
L 166.257269 224.807732 
L 167.771102 225.263916 
L 171.555685 225.720101 
L 173.826434 226.176286 
L 177.358711 226.63247 
L 178.872544 227.088655 
L 183.161738 227.54484 
L 188.712459 228.457209 
L 192.244736 228.913394 
L 197.543151 229.369579 
L 200.823123 229.825763 
L 202.841567 230.281948 
L 211.924565 231.650502 
L 223.278312 233.019056 
L 225.04445 233.475241 
L 230.595171 234.38761 
L 239.173558 235.756164 
L 243.210446 236.212349 
L 244.471974 236.668534 
L 246.995029 237.124718 
L 248.256556 237.580903 
L 257.339554 238.949457 
L 260.114915 239.405642 
L 262.133359 239.861827 
L 266.170247 240.318011 
L 271.216357 240.774196 
L 273.991717 241.230381 
L 279.290133 241.686565 
L 284.336243 243.05512 
L 285.59777 243.511304 
L 290.139269 243.967489 
L 292.91463 244.879858 
L 301.997627 246.248412 
L 303.763766 246.704597 
L 317.640568 248.529336 
L 319.406707 248.985521 
L 322.434373 249.441705 
L 322.686678 249.89789 
L 328.74201 250.810259 
L 330.760454 251.266444 
L 336.563481 252.178814 
L 338.329619 252.634998 
L 345.394173 253.547368 
L 347.917228 254.003552 
L 352.206422 254.459737 
L 357.757143 255.372106 
L 360.784809 255.828291 
L 362.046336 256.284476 
L 364.821697 256.740661 
L 373.147778 257.65303 
L 373.904694 258.109215 
L 376.680055 258.565399 
L 380.716943 259.021584 
L 382.483081 259.477769 
L 388.033802 260.390138 
L 388.790719 260.846323 
L 397.369106 262.214877 
L 407.461326 264.039616 
L 409.227464 264.4958 
L 414.52588 265.40817 
L 427.141155 267.232909 
L 427.898071 267.689093 
L 431.430348 268.145278 
L 431.934959 268.601463 
L 433.953403 269.057647 
L 441.017957 269.970017 
L 449.091733 271.338571 
L 456.408592 272.25094 
L 463.725452 274.075679 
L 467.76234 274.988049 
L 471.799228 275.444233 
L 474.574588 275.900418 
L 476.088421 276.356603 
L 479.116087 276.812787 
L 480.882226 277.268972 
L 488.956002 278.637526 
L 491.226751 279.093711 
L 491.983668 279.549896 
L 500.309749 280.91845 
L 502.328193 281.374634 
L 513.934246 282.743189 
L 524.026466 284.567927 
L 529.829492 285.480297 
L 533.86638 286.392666 
L 546.481655 288.217405 
L 549.257016 288.67359 
L 553.546209 289.585959 
L 558.592319 290.042144 
L 575.244482 292.323067 
L 577.010621 292.779252 
L 581.299814 293.691621 
L 584.579786 294.147806 
L 593.662783 295.060175 
L 593.662783 295.51636 
L 595.176616 295.972545 
L 598.456588 296.42873 
L 608.044197 297.341099 
L 610.062641 297.797284 
L 613.090307 298.253468 
L 613.090307 298.253468 
" style="fill:none;stroke:#ffffff;stroke-linecap:square;stroke-width:0.8;"/>
   </g>
   <g id="line2d_23">
    <path clip-path="url(#p9366b277b7)" d="M 145.063608 281.830819 
L 150.362023 282.287004 
L 156.417355 283.199373 
L 160.454243 283.655558 
L 163.229603 284.111743 
L 165.248047 284.567927 
L 167.771102 285.024112 
L 174.835656 285.936481 
L 176.8541 286.392666 
L 179.881766 286.848851 
L 183.918654 287.305036 
L 193.001652 288.67359 
L 197.290846 289.129774 
L 203.093872 289.585959 
L 212.933787 290.954513 
L 218.484508 291.866883 
L 223.026006 292.323067 
L 226.810589 293.235437 
L 229.838255 293.691621 
L 231.604393 294.147806 
L 234.884365 294.603991 
L 240.435086 295.060175 
L 242.958141 295.51636 
L 243.967363 295.972545 
L 251.284222 297.797284 
L 259.862609 298.709653 
L 265.665636 299.622022 
L 283.327021 301.446761 
L 285.850076 301.902946 
L 290.391575 302.359131 
L 291.400797 302.815315 
L 291.653102 303.2715 
L 292.91463 303.727685 
L 298.717656 304.640054 
L 303.763766 305.096239 
L 317.135957 306.920978 
L 322.434373 307.833347 
L 322.434373 308.289532 
L 323.948206 308.745716 
L 341.357285 311.02664 
L 343.88034 311.482825 
L 347.412617 311.939009 
L 348.674145 312.395194 
L 350.944894 312.851379 
L 354.477171 313.307563 
L 359.523281 314.219933 
L 363.307864 314.676118 
L 368.606279 315.132302 
L 376.93236 316.500856 
L 380.464637 316.957041 
L 382.230776 317.413226 
L 385.006136 317.86941 
L 388.538413 318.325595 
L 389.547635 318.78178 
L 395.602967 319.694149 
L 401.910605 321.062703 
L 402.919827 321.518888 
L 411.498214 323.343627 
L 412.507436 323.799812 
L 418.562768 324.712181 
L 423.861183 325.168366 
L 426.384238 325.62455 
L 427.898071 326.080735 
L 434.205709 326.993104 
L 436.224153 327.449289 
L 440.513346 327.905474 
L 446.064067 328.817843 
L 449.596344 329.274028 
L 454.137843 330.186397 
L 456.913203 331.098767 
L 458.174731 331.554951 
L 461.959313 332.467321 
L 466.248507 332.923506 
L 468.771562 333.37969 
L 474.069977 333.835875 
L 476.088421 334.29206 
L 477.097643 334.748244 
L 480.882226 335.204429 
L 482.90067 335.660614 
L 486.937558 336.116798 
L 487.94678 336.572983 
L 489.965224 337.029168 
L 491.479057 337.485353 
L 499.552833 338.853907 
L 501.823582 339.310091 
L 505.608165 339.766276 
L 507.121998 340.222461 
L 510.654275 340.678645 
L 512.168108 341.13483 
L 519.484967 342.503384 
L 523.269549 342.959569 
L 524.531077 343.415754 
L 527.306437 343.871938 
L 530.838714 344.328123 
L 534.875602 345.240492 
L 538.91249 345.696677 
L 547.238572 347.065231 
L 548.247794 347.521416 
L 550.518543 347.977601 
L 552.032376 348.433785 
L 557.583097 349.346155 
L 561.872291 349.802339 
L 563.133818 350.258524 
L 565.152262 350.714709 
L 569.18915 351.170894 
L 573.982955 352.083263 
L 575.244482 352.539448 
L 594.4197 355.276556 
L 599.213504 356.188925 
L 602.998087 356.64511 
L 605.773447 357.101295 
L 612.33339 358.013664 
L 612.33339 358.013664 
" style="fill:none;stroke:#ffffff;stroke-linecap:square;stroke-width:0.8;"/>
   </g>
   <g id="line2d_24">
    <path clip-path="url(#p9366b277b7)" d="M 141.531331 316.500856 
L 161.211159 318.78178 
L 163.229603 319.237965 
L 164.491131 319.694149 
L 166.257269 320.150334 
L 170.546463 321.062703 
L 175.340267 321.518888 
L 177.358711 321.975073 
L 180.638683 322.431257 
L 185.180182 323.343627 
L 190.983208 323.799812 
L 194.010874 324.255996 
L 199.561595 324.712181 
L 201.580039 325.168366 
L 203.850789 326.080735 
L 214.44762 326.993104 
L 216.718369 327.449289 
L 219.746035 327.905474 
L 226.053672 328.361659 
L 229.838255 328.817843 
L 231.604393 329.274028 
L 240.435086 330.642582 
L 247.247334 332.011136 
L 250.275 332.467321 
L 251.536528 332.923506 
L 261.376442 334.29206 
L 264.656414 334.748244 
L 266.927163 335.204429 
L 276.514772 336.116798 
L 279.542438 336.572983 
L 284.588548 337.029168 
L 287.111603 337.485353 
L 287.86852 337.941537 
L 291.400797 338.397722 
L 291.653102 338.853907 
L 293.419241 339.310091 
L 299.474572 340.222461 
L 301.240711 340.678645 
L 305.78221 341.13483 
L 308.809876 341.591015 
L 310.576014 342.0472 
L 313.351375 342.503384 
L 315.117513 342.959569 
L 321.425151 343.871938 
L 322.938984 344.328123 
L 330.760454 345.696677 
L 338.077314 346.609047 
L 353.467949 348.433785 
L 354.729477 348.88997 
L 357.252532 349.346155 
L 359.01867 349.802339 
L 365.326308 350.714709 
L 367.849363 351.170894 
L 381.473859 352.995632 
L 388.538413 354.364186 
L 390.556857 354.820371 
L 394.34144 355.276556 
L 396.359884 355.732741 
L 399.38755 356.188925 
L 403.172132 356.64511 
L 405.695187 357.101295 
L 406.956715 357.557479 
L 411.245908 358.013664 
L 413.264352 358.469849 
L 428.150377 359.838403 
L 428.907293 360.294588 
L 430.673432 360.750772 
L 434.205709 361.206957 
L 438.747208 361.663142 
L 448.082511 363.48788 
L 452.876315 363.944065 
L 456.913203 364.856435 
L 458.174731 365.312619 
L 458.931647 365.768804 
L 460.697786 366.224989 
L 463.725452 366.681173 
L 463.977757 367.137358 
L 466.753118 368.049727 
L 474.826894 368.962097 
L 476.340727 369.418282 
L 478.106865 370.330651 
L 481.386837 370.786836 
L 485.423725 371.699205 
L 486.937558 372.15539 
L 502.832804 375.348683 
L 506.617387 375.804867 
L 511.663497 376.261052 
L 516.709606 377.173421 
L 519.484967 377.629606 
L 521.503411 378.085791 
L 524.278771 378.541976 
L 528.315659 378.99816 
L 536.13713 380.366714 
L 539.921712 380.822899 
L 540.174018 381.279084 
L 544.210906 381.735268 
L 547.238572 382.191453 
L 549.509321 382.647638 
L 550.770849 383.103823 
L 555.816959 384.016192 
L 559.09693 384.472377 
L 561.36768 384.928561 
L 564.395346 385.384746 
L 565.404568 385.840931 
L 566.918401 386.297115 
L 571.4599 386.7533 
L 576.50601 387.66567 
L 580.290592 388.121854 
L 586.345924 389.034224 
L 590.130506 389.490408 
L 594.924311 389.946593 
L 597.951977 390.402778 
L 599.970421 390.858962 
L 605.521142 391.315147 
L 606.278058 391.771332 
L 609.305724 392.227517 
L 613.594918 392.683701 
L 613.594918 392.683701 
" style="fill:none;stroke:#ffffff;stroke-linecap:square;stroke-width:0.8;"/>
   </g>
   <g id="line2d_25">
    <path clip-path="url(#p9366b277b7)" d="M 143.549775 335.204429 
L 147.586663 335.660614 
L 153.137383 336.116798 
L 155.408133 336.572983 
L 159.192715 337.029168 
L 174.07874 339.766276 
L 177.611017 340.222461 
L 187.703237 341.13483 
L 190.730903 341.591015 
L 199.561595 342.503384 
L 202.08465 342.959569 
L 209.149204 343.415754 
L 224.287534 345.240492 
L 227.819811 346.152862 
L 232.109004 347.065231 
L 239.930475 347.977601 
L 240.435086 348.433785 
L 251.031917 350.258524 
L 253.050361 350.714709 
L 255.573416 351.170894 
L 257.339554 351.627078 
L 260.871831 352.083263 
L 263.142581 352.539448 
L 270.207135 353.451817 
L 272.477884 353.908002 
L 273.739412 354.364186 
L 280.047049 355.276556 
L 284.840854 356.188925 
L 295.942295 357.557479 
L 297.708434 358.013664 
L 303.259155 358.926033 
L 304.772988 359.382218 
L 310.576014 360.294588 
L 314.865208 361.206957 
L 317.388263 361.663142 
L 323.191289 362.575511 
L 334.797342 364.40025 
L 340.852674 365.312619 
L 344.889562 365.768804 
L 347.664923 366.224989 
L 350.692589 367.137358 
L 352.711033 367.593543 
L 355.234088 368.049727 
L 359.01867 368.962097 
L 361.28942 369.418282 
L 364.317086 369.874466 
L 365.326308 370.330651 
L 371.88625 371.24302 
L 374.913916 371.699205 
L 379.707721 372.15539 
L 382.987692 372.611574 
L 388.538413 373.067759 
L 392.322996 373.980129 
L 395.098356 374.436313 
L 399.892161 374.892498 
L 400.649077 375.348683 
L 404.685965 375.804867 
L 408.975159 376.717237 
L 417.048935 377.629606 
L 419.824295 378.085791 
L 424.113489 378.541976 
L 427.141155 378.99816 
L 428.907293 379.454345 
L 434.458014 380.366714 
L 435.214931 380.822899 
L 441.270263 381.735268 
L 442.279484 382.191453 
L 444.045623 382.647638 
L 447.5779 383.103823 
L 449.344038 383.560007 
L 455.651676 384.472377 
L 457.67012 384.928561 
L 461.454702 385.384746 
L 465.239285 386.297115 
L 469.528478 386.7533 
L 474.826894 387.66567 
L 476.340727 388.121854 
L 483.405281 388.578039 
L 486.180641 389.034224 
L 487.442169 389.490408 
L 490.217529 389.946593 
L 490.72214 390.402778 
L 496.525167 391.315147 
L 502.328193 392.227517 
L 512.168108 393.139886 
L 515.700384 393.596071 
L 518.223439 394.052255 
L 519.232661 394.50844 
L 522.512633 394.964625 
L 530.586409 395.876994 
L 533.614075 396.333179 
L 537.398657 396.789364 
L 539.669407 397.245548 
L 540.678629 397.701733 
L 542.444767 398.157918 
L 549.509321 399.526472 
L 556.573875 400.438841 
L 559.09693 400.895026 
L 572.469122 402.719765 
L 581.299814 404.088319 
L 585.084397 404.544503 
L 586.345924 405.000688 
L 592.14895 405.913058 
L 593.662783 406.369242 
L 598.456588 407.281612 
L 602.493476 407.737796 
L 607.539586 408.193981 
L 610.314946 408.650166 
L 610.314946 408.650166 
" style="fill:none;stroke:#ffffff;stroke-linecap:square;stroke-width:0.8;"/>
   </g>
   <g id="line2d_26">
    <path clip-path="url(#p9366b277b7)" d="M 140.774414 448.338235 
L 141.783636 448.794419 
L 146.07283 449.250604 
L 149.605107 449.706789 
L 152.632772 450.162974 
L 156.66966 450.619158 
L 160.201937 451.075343 
L 160.958854 451.531528 
L 163.229603 451.987712 
L 164.491131 452.443897 
L 166.76188 452.900082 
L 170.041852 453.356266 
L 173.321823 453.812451 
L 175.592573 454.268636 
L 180.134072 454.724821 
L 184.17096 455.181005 
L 188.207848 455.63719 
L 193.001652 456.093375 
L 196.029318 456.549559 
L 200.570817 457.005744 
L 202.08465 457.461929 
L 204.860011 457.918113 
L 208.392288 458.374298 
L 211.672259 458.830483 
L 216.718369 459.286668 
L 220.502952 459.742852 
L 224.792145 460.199037 
L 227.3152 460.655222 
L 229.585949 461.111406 
L 231.604393 461.567591 
L 232.613615 462.023776 
L 235.641281 462.47996 
L 237.912031 462.936145 
L 240.435086 463.39233 
L 242.201224 463.848515 
L 244.976585 464.304699 
L 247.49964 464.760884 
L 249.518084 465.217069 
L 252.54575 465.673253 
L 255.068805 466.129438 
L 259.357998 466.585623 
L 261.376442 467.041807 
L 262.63797 467.497992 
L 265.41333 467.954177 
L 268.440996 468.410362 
L 269.702524 468.866546 
L 271.216357 469.322731 
L 273.234801 469.778916 
L 275.757856 470.2351 
L 279.794744 470.691285 
L 283.327021 471.14747 
L 284.083937 471.603654 
L 286.102381 472.059839 
L 290.64388 472.516024 
L 291.905408 472.972209 
L 293.166935 473.428393 
L 296.194601 473.884578 
L 299.222267 474.340763 
L 303.259155 474.796947 
L 306.791432 475.253132 
L 308.809876 475.709317 
L 309.314487 476.165501 
L 312.342153 476.621686 
L 314.865208 477.077871 
L 317.640568 477.534056 
L 319.154401 477.99024 
L 322.434373 478.446425 
L 324.452817 478.90261 
L 327.480483 479.358794 
L 331.769676 479.814979 
L 334.797342 480.271164 
L 337.320397 480.727348 
L 338.581925 481.183533 
L 342.618813 481.639718 
L 346.15109 482.095903 
L 349.683367 482.552087 
L 351.954116 483.008272 
L 354.224866 483.464457 
L 357.252532 483.920641 
L 360.280198 484.376826 
L 361.28942 484.833011 
L 363.812475 485.289195 
L 367.092446 485.74538 
L 370.372417 486.201565 
L 373.147778 486.65775 
L 378.193888 487.113934 
L 380.969248 487.570119 
L 383.744609 488.026304 
L 386.772275 488.482488 
L 388.790719 488.938673 
L 392.575301 489.394858 
L 395.602967 489.851042 
L 397.1168 490.307227 
L 399.892161 490.763412 
L 402.919827 491.219597 
L 405.190576 491.675781 
" style="fill:none;stroke:#ffffff;stroke-linecap:square;stroke-width:0.8;"/>
   </g>
   <g id="line2d_27">
    <path clip-path="url(#p9366b277b7)" d="M 140.774414 483.464457 
L 142.035942 483.920641 
L 145.063608 484.376826 
L 147.586663 484.833011 
L 150.614328 485.289195 
L 155.155827 485.74538 
L 160.454243 486.201565 
L 161.211159 486.65775 
L 163.98652 487.113934 
L 164.995742 487.570119 
L 167.771102 488.026304 
L 171.303379 488.482488 
L 173.826434 488.938673 
L 176.097184 489.394858 
L 179.629461 489.851042 
L 181.395599 490.307227 
L 183.414043 490.763412 
L 186.94632 491.219597 
L 191.487819 491.675781 
" style="fill:none;stroke:#ffffff;stroke-linecap:square;stroke-width:0.8;"/>
   </g>
   <g id="line2d_28">
    <defs>
     <path d="M 0 0.75 
C 0.198902 0.75 0.389685 0.670975 0.53033 0.53033 
C 0.670975 0.389685 0.75 0.198902 0.75 0 
C 0.75 -0.198902 0.670975 -0.389685 0.53033 -0.53033 
C 0.389685 -0.670975 0.198902 -0.75 0 -0.75 
C -0.198902 -0.75 -0.389685 -0.670975 -0.53033 -0.53033 
C -0.670975 -0.389685 -0.75 -0.198902 -0.75 0 
C -0.75 0.198902 -0.670975 0.389685 -0.53033 0.53033 
C -0.389685 0.670975 -0.198902 0.75 0 0.75 
z
" id="m57b72d3c46" style="stroke:#00ff00;"/>
    </defs>
    <g clip-path="url(#p9366b277b7)">
     <use style="fill:#00ff00;stroke:#00ff00;" x="185.937098" xlink:href="#m57b72d3c46" y="166.191825"/>
     <use style="fill:#00ff00;stroke:#00ff00;" x="186.189404" xlink:href="#m57b72d3c46" y="166.229281"/>
     <use style="fill:#00ff00;stroke:#00ff00;" x="186.441709" xlink:href="#m57b72d3c46" y="166.254764"/>
     <use style="fill:#00ff00;stroke:#00ff00;" x="192.244736" xlink:href="#m57b72d3c46" y="167.274462"/>
     <use style="fill:#00ff00;stroke:#00ff00;" x="192.497041" xlink:href="#m57b72d3c46" y="167.325606"/>
     <use style="fill:#00ff00;stroke:#00ff00;" x="280.55166" xlink:href="#m57b72d3c46" y="180.623403"/>
     <use style="fill:#00ff00;stroke:#00ff00;" x="282.570104" xlink:href="#m57b72d3c46" y="181.079401"/>
     <use style="fill:#00ff00;stroke:#00ff00;" x="282.82241" xlink:href="#m57b72d3c46" y="181.23983"/>
     <use style="fill:#00ff00;stroke:#00ff00;" x="283.074715" xlink:href="#m57b72d3c46" y="181.393074"/>
     <use style="fill:#00ff00;stroke:#00ff00;" x="285.345465" xlink:href="#m57b72d3c46" y="181.757498"/>
     <use style="fill:#00ff00;stroke:#00ff00;" x="289.886964" xlink:href="#m57b72d3c46" y="182.748049"/>
     <use style="fill:#00ff00;stroke:#00ff00;" x="290.139269" xlink:href="#m57b72d3c46" y="182.764296"/>
     <use style="fill:#00ff00;stroke:#00ff00;" x="290.896186" xlink:href="#m57b72d3c46" y="182.912223"/>
     <use style="fill:#00ff00;stroke:#00ff00;" x="291.148491" xlink:href="#m57b72d3c46" y="183.000151"/>
     <use style="fill:#00ff00;stroke:#00ff00;" x="291.400797" xlink:href="#m57b72d3c46" y="183.06148"/>
     <use style="fill:#00ff00;stroke:#00ff00;" x="291.653102" xlink:href="#m57b72d3c46" y="183.251718"/>
     <use style="fill:#00ff00;stroke:#00ff00;" x="294.428463" xlink:href="#m57b72d3c46" y="183.53171"/>
     <use style="fill:#00ff00;stroke:#00ff00;" x="294.680768" xlink:href="#m57b72d3c46" y="183.576983"/>
     <use style="fill:#00ff00;stroke:#00ff00;" x="295.68999" xlink:href="#m57b72d3c46" y="183.667776"/>
     <use style="fill:#00ff00;stroke:#00ff00;" x="295.942295" xlink:href="#m57b72d3c46" y="183.736654"/>
     <use style="fill:#00ff00;stroke:#00ff00;" x="296.194601" xlink:href="#m57b72d3c46" y="183.743558"/>
     <use style="fill:#00ff00;stroke:#00ff00;" x="296.446906" xlink:href="#m57b72d3c46" y="183.767212"/>
     <use style="fill:#00ff00;stroke:#00ff00;" x="296.951517" xlink:href="#m57b72d3c46" y="183.810285"/>
     <use style="fill:#00ff00;stroke:#00ff00;" x="297.203823" xlink:href="#m57b72d3c46" y="183.873508"/>
     <use style="fill:#00ff00;stroke:#00ff00;" x="297.456128" xlink:href="#m57b72d3c46" y="183.89755"/>
     <use style="fill:#00ff00;stroke:#00ff00;" x="301.240711" xlink:href="#m57b72d3c46" y="184.65389"/>
     <use style="fill:#00ff00;stroke:#00ff00;" x="301.745322" xlink:href="#m57b72d3c46" y="184.767231"/>
     <use style="fill:#00ff00;stroke:#00ff00;" x="302.249933" xlink:href="#m57b72d3c46" y="184.810297"/>
     <use style="fill:#00ff00;stroke:#00ff00;" x="304.016071" xlink:href="#m57b72d3c46" y="184.982707"/>
     <use style="fill:#00ff00;stroke:#00ff00;" x="304.268377" xlink:href="#m57b72d3c46" y="185.023349"/>
     <use style="fill:#00ff00;stroke:#00ff00;" x="305.529904" xlink:href="#m57b72d3c46" y="185.25436"/>
     <use style="fill:#00ff00;stroke:#00ff00;" x="305.78221" xlink:href="#m57b72d3c46" y="185.273542"/>
     <use style="fill:#00ff00;stroke:#00ff00;" x="306.539126" xlink:href="#m57b72d3c46" y="185.379471"/>
     <use style="fill:#00ff00;stroke:#00ff00;" x="309.062181" xlink:href="#m57b72d3c46" y="185.725282"/>
     <use style="fill:#00ff00;stroke:#00ff00;" x="309.314487" xlink:href="#m57b72d3c46" y="185.749574"/>
     <use style="fill:#00ff00;stroke:#00ff00;" x="312.594458" xlink:href="#m57b72d3c46" y="186.125863"/>
     <use style="fill:#00ff00;stroke:#00ff00;" x="313.351375" xlink:href="#m57b72d3c46" y="186.243769"/>
     <use style="fill:#00ff00;stroke:#00ff00;" x="313.855986" xlink:href="#m57b72d3c46" y="186.29093"/>
     <use style="fill:#00ff00;stroke:#00ff00;" x="314.108291" xlink:href="#m57b72d3c46" y="186.345526"/>
     <use style="fill:#00ff00;stroke:#00ff00;" x="314.360597" xlink:href="#m57b72d3c46" y="186.361682"/>
     <use style="fill:#00ff00;stroke:#00ff00;" x="314.865208" xlink:href="#m57b72d3c46" y="186.402806"/>
     <use style="fill:#00ff00;stroke:#00ff00;" x="319.911318" xlink:href="#m57b72d3c46" y="187.078667"/>
     <use style="fill:#00ff00;stroke:#00ff00;" x="320.163623" xlink:href="#m57b72d3c46" y="187.33513"/>
     <use style="fill:#00ff00;stroke:#00ff00;" x="381.221554" xlink:href="#m57b72d3c46" y="196.472383"/>
     <use style="fill:#00ff00;stroke:#00ff00;" x="381.473859" xlink:href="#m57b72d3c46" y="196.619798"/>
     <use style="fill:#00ff00;stroke:#00ff00;" x="381.726165" xlink:href="#m57b72d3c46" y="196.703965"/>
     <use style="fill:#00ff00;stroke:#00ff00;" x="382.483081" xlink:href="#m57b72d3c46" y="196.801916"/>
     <use style="fill:#00ff00;stroke:#00ff00;" x="383.744609" xlink:href="#m57b72d3c46" y="197.045097"/>
     <use style="fill:#00ff00;stroke:#00ff00;" x="386.015358" xlink:href="#m57b72d3c46" y="197.420983"/>
     <use style="fill:#00ff00;stroke:#00ff00;" x="386.267664" xlink:href="#m57b72d3c46" y="197.572896"/>
     <use style="fill:#00ff00;stroke:#00ff00;" x="388.033802" xlink:href="#m57b72d3c46" y="197.859909"/>
     <use style="fill:#00ff00;stroke:#00ff00;" x="388.790719" xlink:href="#m57b72d3c46" y="197.944592"/>
     <use style="fill:#00ff00;stroke:#00ff00;" x="389.043024" xlink:href="#m57b72d3c46" y="197.97577"/>
     <use style="fill:#00ff00;stroke:#00ff00;" x="441.270263" xlink:href="#m57b72d3c46" y="206.240599"/>
     <use style="fill:#00ff00;stroke:#00ff00;" x="441.522568" xlink:href="#m57b72d3c46" y="206.351349"/>
     <use style="fill:#00ff00;stroke:#00ff00;" x="455.651676" xlink:href="#m57b72d3c46" y="209.12097"/>
     <use style="fill:#00ff00;stroke:#00ff00;" x="491.226751" xlink:href="#m57b72d3c46" y="214.571086"/>
     <use style="fill:#00ff00;stroke:#00ff00;" x="491.983668" xlink:href="#m57b72d3c46" y="214.771337"/>
     <use style="fill:#00ff00;stroke:#00ff00;" x="492.99289" xlink:href="#m57b72d3c46" y="215.055928"/>
     <use style="fill:#00ff00;stroke:#00ff00;" x="497.282083" xlink:href="#m57b72d3c46" y="215.627453"/>
     <use style="fill:#00ff00;stroke:#00ff00;" x="497.786694" xlink:href="#m57b72d3c46" y="215.840281"/>
     <use style="fill:#00ff00;stroke:#00ff00;" x="498.039" xlink:href="#m57b72d3c46" y="215.87219"/>
     <use style="fill:#00ff00;stroke:#00ff00;" x="605.268836" xlink:href="#m57b72d3c46" y="233.266537"/>
     <use style="fill:#00ff00;stroke:#00ff00;" x="605.521142" xlink:href="#m57b72d3c46" y="233.28908"/>
     <use style="fill:#00ff00;stroke:#00ff00;" x="612.33339" xlink:href="#m57b72d3c46" y="234.221962"/>
    </g>
   </g>
   <g id="patch_3">
    <path d="M 117.070313 491.675781 
L 117.070313 35.947266 
" style="fill:none;stroke:#000000;stroke-linecap:square;stroke-linejoin:miter;stroke-width:0.8;"/>
   </g>
   <g id="patch_4">
    <path d="M 638.560547 491.675781 
L 638.560547 35.947266 
" style="fill:none;stroke:#000000;stroke-linecap:square;stroke-linejoin:miter;stroke-width:0.8;"/>
   </g>
   <g id="patch_5">
    <path d="M 117.070312 491.675781 
L 638.560547 491.675781 
" style="fill:none;stroke:#000000;stroke-linecap:square;stroke-linejoin:miter;stroke-width:0.8;"/>
   </g>
   <g id="patch_6">
    <path d="M 117.070312 35.947266 
L 638.560547 35.947266 
" style="fill:none;stroke:#000000;stroke-linecap:square;stroke-linejoin:miter;stroke-width:0.8;"/>
   </g>
  </g>
  <g id="axes_2">
   <g id="patch_7">
    <path d="M 731.669922 491.675781 
L 905.5 491.675781 
L 905.5 35.947266 
L 731.669922 35.947266 
z
" style="fill:#ffffff;"/>
   </g>
   <g id="matplotlib.axis_3">
    <g id="xtick_5">
     <g id="line2d_29">
      <g>
       <use style="stroke:#000000;stroke-width:0.8;" x="731.669922" xlink:href="#m9312f56005" y="491.675781"/>
      </g>
     </g>
     <g id="text_13">
      <!-- 0 -->
      <g transform="translate(724.71875 516.570312)scale(0.25 -0.25)">
       <use xlink:href="#ArialMT-30"/>
      </g>
     </g>
    </g>
    <g id="xtick_6">
     <g id="line2d_30">
      <g>
       <use style="stroke:#000000;stroke-width:0.8;" x="847.556641" xlink:href="#m9312f56005" y="491.675781"/>
      </g>
     </g>
     <g id="text_14">
      <!-- 20 -->
      <g transform="translate(833.654297 516.570312)scale(0.25 -0.25)">
       <use xlink:href="#ArialMT-32"/>
       <use x="55.615234" xlink:href="#ArialMT-30"/>
      </g>
     </g>
    </g>
    <g id="text_15">
     <!-- Intensity (ump) -->
     <defs>
      <path d="M 9.328125 0 
L 9.328125 71.578125 
L 18.796875 71.578125 
L 18.796875 0 
z
" id="ArialMT-49"/>
      <path d="M 6.203125 -19.96875 
L 5.21875 -11.71875 
Q 8.109375 -12.5 10.25 -12.5 
Q 13.1875 -12.5 14.9375 -11.515625 
Q 16.703125 -10.546875 17.828125 -8.796875 
Q 18.65625 -7.46875 20.515625 -2.25 
Q 20.75 -1.515625 21.296875 -0.09375 
L 1.609375 51.859375 
L 11.078125 51.859375 
L 21.875 21.828125 
Q 23.96875 16.109375 25.640625 9.8125 
Q 27.15625 15.875 29.25 21.625 
L 40.328125 51.859375 
L 49.125 51.859375 
L 29.390625 -0.875 
Q 26.21875 -9.421875 24.46875 -12.640625 
Q 22.125 -17 19.09375 -19.015625 
Q 16.0625 -21.046875 11.859375 -21.046875 
Q 9.328125 -21.046875 6.203125 -19.96875 
z
" id="ArialMT-79"/>
      <path d="M 40.578125 0 
L 40.578125 7.625 
Q 34.515625 -1.171875 24.125 -1.171875 
Q 19.53125 -1.171875 15.546875 0.578125 
Q 11.578125 2.34375 9.640625 5 
Q 7.71875 7.671875 6.9375 11.53125 
Q 6.390625 14.109375 6.390625 19.734375 
L 6.390625 51.859375 
L 15.1875 51.859375 
L 15.1875 23.09375 
Q 15.1875 16.21875 15.71875 13.8125 
Q 16.546875 10.359375 19.234375 8.375 
Q 21.921875 6.390625 25.875 6.390625 
Q 29.828125 6.390625 33.296875 8.421875 
Q 36.765625 10.453125 38.203125 13.9375 
Q 39.65625 17.4375 39.65625 24.078125 
L 39.65625 51.859375 
L 48.4375 51.859375 
L 48.4375 0 
z
" id="ArialMT-75"/>
     </defs>
     <g transform="translate(735.924805 543.738281)scale(0.25 -0.25)">
      <use xlink:href="#ArialMT-49"/>
      <use x="27.783203" xlink:href="#ArialMT-6e"/>
      <use x="83.398438" xlink:href="#ArialMT-74"/>
      <use x="111.181641" xlink:href="#ArialMT-65"/>
      <use x="166.796875" xlink:href="#ArialMT-6e"/>
      <use x="222.412109" xlink:href="#ArialMT-73"/>
      <use x="272.412109" xlink:href="#ArialMT-69"/>
      <use x="294.628906" xlink:href="#ArialMT-74"/>
      <use x="322.412109" xlink:href="#ArialMT-79"/>
      <use x="372.412109" xlink:href="#ArialMT-20"/>
      <use x="400.195312" xlink:href="#ArialMT-28"/>
      <use x="433.496094" xlink:href="#ArialMT-75"/>
      <use x="489.111328" xlink:href="#ArialMT-6d"/>
      <use x="572.412109" xlink:href="#ArialMT-70"/>
      <use x="628.027344" xlink:href="#ArialMT-29"/>
     </g>
    </g>
   </g>
   <g id="matplotlib.axis_4">
    <g id="ytick_7">
     <g id="line2d_31">
      <g>
       <use style="stroke:#000000;stroke-width:0.8;" x="731.669922" xlink:href="#m2a6aa36d84" y="35.947266"/>
      </g>
     </g>
     <g id="text_16">
      <!-- 0 -->
      <g transform="translate(710.767578 44.894531)scale(0.25 -0.25)">
       <use xlink:href="#ArialMT-30"/>
      </g>
     </g>
    </g>
    <g id="ytick_8">
     <g id="line2d_32">
      <g>
       <use style="stroke:#000000;stroke-width:0.8;" x="731.669922" xlink:href="#m2a6aa36d84" y="127.092969"/>
      </g>
     </g>
     <g id="text_17">
      <!-- 200 -->
      <g transform="translate(682.962891 136.040234)scale(0.25 -0.25)">
       <use xlink:href="#ArialMT-32"/>
       <use x="55.615234" xlink:href="#ArialMT-30"/>
       <use x="111.230469" xlink:href="#ArialMT-30"/>
      </g>
     </g>
    </g>
    <g id="ytick_9">
     <g id="line2d_33">
      <g>
       <use style="stroke:#000000;stroke-width:0.8;" x="731.669922" xlink:href="#m2a6aa36d84" y="218.238672"/>
      </g>
     </g>
     <g id="text_18">
      <!-- 400 -->
      <g transform="translate(682.962891 227.185938)scale(0.25 -0.25)">
       <use xlink:href="#ArialMT-34"/>
       <use x="55.615234" xlink:href="#ArialMT-30"/>
       <use x="111.230469" xlink:href="#ArialMT-30"/>
      </g>
     </g>
    </g>
    <g id="ytick_10">
     <g id="line2d_34">
      <g>
       <use style="stroke:#000000;stroke-width:0.8;" x="731.669922" xlink:href="#m2a6aa36d84" y="309.384375"/>
      </g>
     </g>
     <g id="text_19">
      <!-- 600 -->
      <g transform="translate(682.962891 318.331641)scale(0.25 -0.25)">
       <use xlink:href="#ArialMT-36"/>
       <use x="55.615234" xlink:href="#ArialMT-30"/>
       <use x="111.230469" xlink:href="#ArialMT-30"/>
      </g>
     </g>
    </g>
    <g id="ytick_11">
     <g id="line2d_35">
      <g>
       <use style="stroke:#000000;stroke-width:0.8;" x="731.669922" xlink:href="#m2a6aa36d84" y="400.530078"/>
      </g>
     </g>
     <g id="text_20">
      <!-- 800 -->
      <g transform="translate(682.962891 409.477344)scale(0.25 -0.25)">
       <use xlink:href="#ArialMT-38"/>
       <use x="55.615234" xlink:href="#ArialMT-30"/>
       <use x="111.230469" xlink:href="#ArialMT-30"/>
      </g>
     </g>
    </g>
    <g id="ytick_12">
     <g id="line2d_36">
      <g>
       <use style="stroke:#000000;stroke-width:0.8;" x="731.669922" xlink:href="#m2a6aa36d84" y="491.675781"/>
      </g>
     </g>
     <g id="text_21">
      <!-- 1000 -->
      <g transform="translate(669.060547 500.623047)scale(0.25 -0.25)">
       <use xlink:href="#ArialMT-31"/>
       <use x="55.615234" xlink:href="#ArialMT-30"/>
       <use x="111.230469" xlink:href="#ArialMT-30"/>
       <use x="166.845703" xlink:href="#ArialMT-30"/>
      </g>
     </g>
    </g>
   </g>
   <g id="line2d_37">
    <path clip-path="url(#pb68dbb1c82)" d="M 731.669922 35.947266 
L 731.669922 36.40345 
L 733.408223 37.772004 
L 733.408223 43.702406 
L 733.987656 44.15859 
L 735.146523 44.614775 
L 735.725957 45.07096 
L 735.725957 47.351883 
L 736.884824 47.808068 
L 737.464258 48.264253 
L 737.464258 59.212685 
L 738.043691 59.66887 
L 739.202559 60.125055 
L 739.202559 65.599271 
L 740.361426 66.511641 
L 742.099727 66.967825 
L 743.258594 67.42401 
L 743.258594 69.704933 
L 744.417461 70.161118 
L 744.996895 70.617303 
L 744.996895 73.810596 
L 745.576328 74.26678 
L 745.576328 74.722965 
L 747.314629 75.17915 
L 747.314629 77.460073 
L 749.05293 78.828627 
L 749.05293 79.740997 
L 750.211797 80.197182 
L 750.79123 80.653366 
L 750.79123 87.496137 
L 751.370664 87.952321 
L 752.529531 88.408506 
L 753.108965 88.864691 
L 753.108965 90.68943 
L 753.688398 91.145614 
L 754.847266 91.601799 
L 754.847266 98.900754 
L 755.426699 99.356939 
L 756.585566 99.813124 
L 756.585566 105.743525 
L 757.744434 106.655894 
L 758.903301 107.112079 
L 758.903301 109.393002 
L 760.062168 109.849187 
L 760.641602 110.305372 
L 760.641602 113.498665 
L 754.847266 113.954849 
L 754.847266 136.3079 
L 749.05293 136.764084 
L 749.05293 144.06304 
L 743.258594 144.519224 
L 743.258594 145.431594 
L 744.996895 145.887778 
L 744.996895 148.168702 
L 746.735195 149.537256 
L 746.735195 152.274364 
L 749.05293 154.099103 
L 749.05293 155.011472 
L 750.211797 155.923842 
L 752.529531 156.836211 
L 753.108965 157.292396 
L 753.108965 158.66095 
L 748.473496 159.117135 
L 749.632363 159.573319 
L 751.950098 160.029504 
L 752.529531 160.485689 
L 752.529531 166.41609 
L 753.688398 166.872275 
L 754.267832 167.328459 
L 756.006133 167.784644 
L 757.165 168.240829 
L 757.165 169.609383 
L 757.744434 170.065568 
L 757.744434 170.521752 
L 758.903301 170.977937 
L 758.903301 171.434122 
L 760.641602 171.890306 
L 760.641602 172.802676 
L 754.847266 173.25886 
L 754.847266 173.715045 
L 756.585566 175.083599 
L 756.585566 181.92637 
L 757.744434 182.382554 
L 758.903301 183.294924 
L 758.903301 185.119663 
L 760.062168 185.575847 
L 760.641602 186.032032 
L 760.641602 188.76914 
L 762.379902 190.137694 
L 762.379902 197.43665 
L 762.959336 197.892834 
L 764.118203 198.349019 
L 764.697637 198.805204 
L 764.697637 200.629942 
L 765.27707 201.086127 
L 766.435937 201.542312 
L 766.435937 220.702069 
L 767.015371 221.158254 
L 768.174238 221.614439 
L 768.174238 223.895362 
L 762.379902 224.351547 
L 762.379902 228.457209 
L 762.959336 228.913394 
L 758.323867 229.369579 
L 758.903301 229.825763 
L 758.903301 232.106687 
L 760.062168 232.562871 
L 760.641602 233.019056 
L 760.641602 234.38761 
L 749.05293 235.29998 
L 749.05293 252.178814 
L 743.258594 252.634998 
L 743.258594 264.951985 
L 737.464258 265.40817 
L 737.464258 281.374634 
L 738.623125 281.830819 
L 739.202559 282.287004 
L 739.202559 288.217405 
L 740.361426 288.67359 
L 741.520293 289.585959 
L 741.520293 291.410698 
L 742.099727 291.866883 
L 743.258594 292.323067 
L 743.258594 298.709653 
L 737.464258 299.165838 
L 737.464258 316.044672 
L 739.202559 317.413226 
L 739.202559 323.343627 
L 740.361426 324.255996 
L 741.520293 324.712181 
L 741.520293 326.993104 
L 743.258594 328.361659 
L 743.258594 334.748244 
L 744.417461 335.204429 
L 744.996895 335.660614 
L 744.996895 341.13483 
L 746.155762 342.0472 
L 747.314629 342.503384 
L 747.314629 343.871938 
L 749.05293 345.240492 
L 749.05293 358.469849 
L 743.258594 358.926033 
L 743.258594 393.139886 
L 737.464258 393.596071 
L 737.464258 409.10635 
L 731.669922 409.562535 
L 731.669922 447.88205 
L 732.249355 448.338235 
L 733.408223 448.794419 
L 733.408223 455.181005 
L 734.56709 455.63719 
L 735.725957 456.549559 
L 735.725957 458.374298 
L 737.464258 459.742852 
L 737.464258 483.008272 
L 739.202559 484.376826 
L 739.202559 490.763412 
L 740.361426 491.675781 
L 740.361426 491.675781 
" style="fill:none;stroke:#ffffff;stroke-linecap:square;stroke-width:0.8;"/>
   </g>
   <g id="patch_8">
    <path d="M 731.669922 491.675781 
L 731.669922 35.947266 
" style="fill:none;stroke:#000000;stroke-linecap:square;stroke-linejoin:miter;stroke-width:0.8;"/>
   </g>
   <g id="patch_9">
    <path d="M 905.5 491.675781 
L 905.5 35.947266 
" style="fill:none;stroke:#000000;stroke-linecap:square;stroke-linejoin:miter;stroke-width:0.8;"/>
   </g>
   <g id="patch_10">
    <path d="M 731.669922 491.675781 
L 905.5 491.675781 
" style="fill:none;stroke:#000000;stroke-linecap:square;stroke-linejoin:miter;stroke-width:0.8;"/>
   </g>
   <g id="patch_11">
    <path d="M 731.669922 35.947266 
L 905.5 35.947266 
" style="fill:none;stroke:#000000;stroke-linecap:square;stroke-linejoin:miter;stroke-width:0.8;"/>
   </g>
  </g>
 </g>
 <defs>
  <clipPath id="p9366b277b7">
   <rect height="455.728516" width="521.490234" x="117.070313" y="35.947266"/>
  </clipPath>
  <clipPath id="pb68dbb1c82">
   <rect height="455.728516" width="173.830078" x="731.669922" y="35.947266"/>
  </clipPath>
 </defs>
</svg>
